<svg width="27" height="24" viewBox="0 0 27 24" fill="none" xmlns="http://www.w3.org/2000/svg">
<path d="M0 3.39946C0 1.52296 1.49707 0 3.34169 0H23.3918C25.2364 0 26.7335 1.52296 26.7335 3.39946V7.64782C26.389 7.39922 26.009 7.20595 25.6069 7.07477L24.8239 6.82224V3.39946C24.8239 3.01307 24.6731 2.64249 24.4045 2.36927C24.1359 2.09605 23.7716 1.94255 23.3918 1.94255H3.34169C2.96186 1.94255 2.59758 2.09605 2.329 2.36927C2.06042 2.64249 1.90953 3.01307 1.90953 3.39946V16.026C1.90953 16.8303 2.55114 17.483 3.34169 17.483H7.63814V15.5404C7.63814 15.0252 7.83932 14.5311 8.19743 14.1668C8.55554 13.8025 9.04123 13.5979 9.54767 13.5979H17.1858C17.6923 13.5979 18.1779 13.8025 18.5361 14.1668C18.8942 14.5311 19.0953 15.0252 19.0953 15.5404V15.9386C18.4183 15.9236 17.7527 16.1173 17.1858 16.4942V15.5404H9.54767V17.483H16.2005L15.2935 18.8389L15.156 19.072L15.1312 19.1147C15.0779 19.2159 15.0295 19.3196 14.986 19.4255H3.34169C2.45542 19.4255 1.60544 19.0673 0.978757 18.4298C0.352069 17.7923 0 16.9276 0 16.026V3.39946ZM26.5807 10.6937C26.68 11.1405 26.7316 11.6106 26.7335 12.1021V12.1565C26.7278 13.8543 26.132 15.8104 24.9462 18.023C24.6979 18.4892 24.4459 18.9243 24.1881 19.3284C22.8571 21.4283 21.4231 22.722 19.884 23.2115C19.5335 23.3217 19.1614 23.34 18.8022 23.2646C18.4429 23.1892 18.1083 23.0226 17.8293 22.7803L17.6766 22.6385L17.0865 22.0363C16.8376 21.7758 16.6768 21.4414 16.6274 21.0816C16.5779 20.7219 16.6424 20.3554 16.8115 20.0355L16.8994 19.8917L17.7911 18.5591C17.9382 18.3358 18.1408 18.156 18.3782 18.038C18.6156 17.92 18.8795 17.8679 19.1431 17.887C19.2004 17.8909 19.2596 17.9006 19.3188 17.9123L19.4753 17.9569L21.1195 18.5144C21.7763 18.0094 22.3225 17.3722 22.7617 16.6069C23.1224 15.9905 23.372 15.3136 23.4987 14.608L23.5465 14.27L22.1773 12.949C21.9557 12.7302 21.798 12.4531 21.7218 12.1486C21.6457 11.8441 21.6539 11.5241 21.7458 11.2241L21.8031 11.0589L22.4256 9.569C22.5537 9.23887 22.7912 8.96464 23.097 8.79368C23.4027 8.62273 23.7576 8.56578 24.1002 8.63269L24.2473 8.67155L25.0244 8.92408C25.7978 9.17661 26.3879 9.84873 26.5788 10.6918L26.5807 10.6937ZM13.3667 11.6553C14.3796 11.6553 15.351 11.246 16.0672 10.5174C16.7834 9.78878 17.1858 8.80059 17.1858 7.7702C17.1858 6.73981 16.7834 5.75162 16.0672 5.02302C15.351 4.29442 14.3796 3.8851 13.3667 3.8851C12.3539 3.8851 11.3825 4.29442 10.6663 5.02302C9.95004 5.75162 9.54767 6.73981 9.54767 7.7702C9.54767 8.80059 9.95004 9.78878 10.6663 10.5174C11.3825 11.246 12.3539 11.6553 13.3667 11.6553V11.6553ZM13.3667 9.71275C12.8603 9.71275 12.3746 9.50809 12.0165 9.14379C11.6584 8.77949 11.4572 8.2854 11.4572 7.7702C11.4572 7.25501 11.6584 6.76091 12.0165 6.39661C12.3746 6.03231 12.8603 5.82765 13.3667 5.82765C13.8732 5.82765 14.3589 6.03231 14.717 6.39661C15.0751 6.76091 15.2763 7.25501 15.2763 7.7702C15.2763 8.2854 15.0751 8.77949 14.717 9.14379C14.3589 9.50809 13.8732 9.71275 13.3667 9.71275V9.71275Z" fill="#0073E6"/>
</svg>
