<svg width="301" height="300" viewBox="0 0 301 300" fill="none" xmlns="http://www.w3.org/2000/svg">
<path opacity="0.3" fill-rule="evenodd" clip-rule="evenodd" d="M300.226 150C300.226 232.843 233.069 300 150.226 300C67.3834 300 0.226135 232.843 0.226135 150C0.226135 67.1573 67.3834 0 150.226 0C233.069 0 300.226 67.1573 300.226 150ZM150.226 276.253C219.953 276.253 276.479 219.727 276.479 150C276.479 80.2727 219.953 23.7475 150.226 23.7475C80.4988 23.7475 23.9736 80.2727 23.9736 150C23.9736 219.727 80.4988 276.253 150.226 276.253Z" fill="#FDB902"/>
<path d="M145.454 300C228.297 300 295.454 232.843 295.454 150C295.454 86.4862 255.979 32.1921 200.225 10.314C192.734 7.37465 185.061 13.2175 185.061 21.2642V21.2642C185.061 26.5289 188.465 31.1456 193.336 33.1436C239.32 52.0054 271.707 97.2206 271.707 150C271.707 219.727 215.181 276.253 145.454 276.253C92.6745 276.253 47.4593 243.866 28.5975 197.882C26.5995 193.011 21.9829 189.608 16.7181 189.608V189.608C8.67139 189.608 2.82856 197.28 5.76791 204.771C27.646 260.525 81.9401 300 145.454 300Z" fill="#FDB902"/>
</svg>
