<svg width="14" height="15" viewBox="0 0 14 15" fill="none" xmlns="http://www.w3.org/2000/svg">
<path d="M12.7477 0.956213L0.332583 5.50825C0.235472 5.54132 0.151251 5.60336 0.0916424 5.68573C0.032033 5.7681 0 5.86671 0 5.96783C0 6.06895 0.032033 6.16755 0.0916424 6.24992C0.209001 6.41209 0.434792 6.41361 0.634456 6.39924C3.33873 6.20461 8.07778 7.36104 7.81742 13.4838C7.80892 13.6837 7.8136 13.9133 7.97434 14.0324C8.05648 14.0933 8.15588 14.1275 8.2587 14.1302C8.36151 14.1329 8.46261 14.1039 8.54791 14.0474C8.63321 13.9908 8.69846 13.9095 8.73456 13.8147L13.3853 1.57871C13.4178 1.49134 13.4241 1.39664 13.4035 1.30583C13.383 1.21502 13.3364 1.13193 13.2693 1.0664C13.2021 1.00087 13.1173 0.95566 13.0249 0.93613C12.9325 0.9166 12.8363 0.923569 12.7477 0.956213Z" fill="#05254D"/>
</svg>
