<svg width="300" height="300" viewBox="0 0 300 300" fill="none" xmlns="http://www.w3.org/2000/svg">
<path opacity="0.3" fill-rule="evenodd" clip-rule="evenodd" d="M300 150C300 232.843 232.843 300 150 300C67.1573 300 0 232.843 0 150C0 67.1573 67.1573 0 150 0C232.843 0 300 67.1573 300 150ZM150 276.253C219.727 276.253 276.253 219.727 276.253 150C276.253 80.2727 219.727 23.7475 150 23.7475C80.2727 23.7475 23.7475 80.2727 23.7475 150C23.7475 219.727 80.2727 276.253 150 276.253Z" fill="#FF7A00"/>
<path d="M150 300C232.843 300 300 232.843 300 150C300 86.4862 260.525 32.1921 204.771 10.314C197.28 7.37465 189.607 13.2175 189.607 21.2642V21.2642C189.607 26.5289 193.011 31.1456 197.881 33.1436C243.866 52.0054 276.253 97.2206 276.253 150C276.253 219.727 219.727 276.253 150 276.253C97.2205 276.253 52.0052 243.866 33.1435 197.882C31.1455 193.011 26.5288 189.608 21.264 189.608V189.608C13.2173 189.608 7.37452 197.28 10.3139 204.771C32.1919 260.525 86.486 300 150 300Z" fill="#FF7A00"/>
</svg>
