<svg width="55" height="54" viewBox="0 0 55 54" fill="none" xmlns="http://www.w3.org/2000/svg">
<path fill-rule="evenodd" clip-rule="evenodd" d="M4.79504 49.6753C8.72217 53.5249 15.0334 53.5249 27.6613 53.5249C40.2893 53.5249 46.6032 53.5249 50.525 49.6753C54.4494 45.8309 54.4494 39.6346 54.4494 27.2474C54.4494 14.8601 54.4494 8.66649 50.525 4.81683C46.6059 0.969791 40.2893 0.969791 27.6613 0.969791C15.0334 0.969791 8.71949 0.969791 4.79504 4.81683C0.87326 8.66912 0.87326 14.8601 0.87326 27.2474C0.87326 39.6346 0.87326 45.8282 4.79504 49.6753ZM45.7433 37.7584C45.7433 38.2811 45.5316 38.7824 45.1549 39.152C44.7781 39.5216 44.2671 39.7292 43.7342 39.7292H11.5885C11.0556 39.7292 10.5446 39.5216 10.1678 39.152C9.79106 38.7824 9.57939 38.2811 9.57939 37.7584C9.57939 37.2357 9.79106 36.7344 10.1678 36.3648C10.5446 35.9952 11.0556 35.7876 11.5885 35.7876H43.7342C44.2671 35.7876 44.7781 35.9952 45.1549 36.3648C45.5316 36.7344 45.7433 37.2357 45.7433 37.7584ZM43.7342 29.2182C44.2671 29.2182 44.7781 29.0105 45.1549 28.6409C45.5316 28.2713 45.7433 27.7701 45.7433 27.2474C45.7433 26.7247 45.5316 26.2234 45.1549 25.8538C44.7781 25.4842 44.2671 25.2765 43.7342 25.2765H11.5885C11.0556 25.2765 10.5446 25.4842 10.1678 25.8538C9.79106 26.2234 9.57939 26.7247 9.57939 27.2474C9.57939 27.7701 9.79106 28.2713 10.1678 28.6409C10.5446 29.0105 11.0556 29.2182 11.5885 29.2182H43.7342ZM45.7433 16.7363C45.7433 17.259 45.5316 17.7603 45.1549 18.1299C44.7781 18.4995 44.2671 18.7072 43.7342 18.7072H11.5885C11.0556 18.7072 10.5446 18.4995 10.1678 18.1299C9.79106 17.7603 9.57939 17.259 9.57939 16.7363C9.57939 16.2136 9.79106 15.7124 10.1678 15.3428C10.5446 14.9732 11.0556 14.7655 11.5885 14.7655H43.7342C44.2671 14.7655 44.7781 14.9732 45.1549 15.3428C45.5316 15.7124 45.7433 16.2136 45.7433 16.7363Z" fill="#0073E6"/>
</svg>
