<svg width="302" height="300" viewBox="0 0 302 300" fill="none" xmlns="http://www.w3.org/2000/svg">
<path opacity="0.3" fill-rule="evenodd" clip-rule="evenodd" d="M300 150C300 232.843 232.843 300 150 300C67.1573 300 0 232.843 0 150C0 67.1573 67.1573 0 150 0C232.843 0 300 67.1573 300 150ZM150 276.253C219.727 276.253 276.253 219.727 276.253 150C276.253 80.2727 219.727 23.7475 150 23.7475C80.2727 23.7475 23.7475 80.2727 23.7475 150C23.7475 219.727 80.2727 276.253 150 276.253Z" fill="#0073E6"/>
<path d="M151.942 300C234.784 300 301.942 232.843 301.942 150C301.942 86.4862 262.466 32.1921 206.712 10.314C199.222 7.37465 191.549 13.2175 191.549 21.2642V21.2642C191.549 26.5289 194.952 31.1456 199.823 33.1436C245.807 52.0054 278.194 97.2206 278.194 150C278.194 219.727 221.669 276.253 151.942 276.253C99.1621 276.253 53.9468 243.866 35.085 197.882C33.0871 193.011 28.4704 189.608 23.2056 189.608V189.608C15.1589 189.608 9.31611 197.28 12.2555 204.771C34.1335 260.525 88.4276 300 151.942 300Z" fill="#0073E6"/>
</svg>
