<svg width="29" height="25" viewBox="0 0 29 25" fill="none" xmlns="http://www.w3.org/2000/svg">
<path d="M26.2821 0H1.93658C1.42296 0 0.930389 0.193812 0.56721 0.538799C0.204032 0.883787 0 1.35169 0 1.83958V18.6586C0 19.1464 0.204032 19.6143 0.56721 19.9593C0.930389 20.3043 1.42296 20.4981 1.93658 20.4981H10.167C10.2146 20.5001 10.2608 20.5131 10.3019 20.536C10.3429 20.5589 10.3773 20.591 10.4022 20.6295L12.4494 23.8751C12.6216 24.1472 12.8649 24.3723 13.1558 24.5286C13.4466 24.685 13.7751 24.7671 14.1093 24.7671C14.4435 24.7671 14.772 24.685 15.0629 24.5286C15.3538 24.3723 15.5971 24.1472 15.7693 23.8751L17.8165 20.6295C17.8414 20.591 17.8758 20.5589 17.9168 20.536C17.9578 20.5131 18.0041 20.5001 18.0517 20.4981H26.2821C26.7957 20.4981 27.2883 20.3043 27.6515 19.9593C28.0146 19.6143 28.2187 19.1464 28.2187 18.6586V1.83958C28.2187 1.35169 28.0146 0.883787 27.6515 0.538799C27.2883 0.193812 26.7957 0 26.2821 0ZM26.5588 18.6586C26.5588 18.7283 26.5296 18.7951 26.4777 18.8444C26.4258 18.8937 26.3555 18.9214 26.2821 18.9214H18.0517C17.7173 18.9215 17.3887 19.0039 17.0978 19.1605C16.8069 19.317 16.5637 19.5425 16.3917 19.8149L14.3445 23.0604C14.3227 23.1019 14.2891 23.1368 14.2476 23.1612C14.2061 23.1856 14.1582 23.1986 14.1093 23.1986C14.0605 23.1986 14.0126 23.1856 13.9711 23.1612C13.9296 23.1368 13.896 23.1019 13.8742 23.0604L11.8269 19.8149C11.655 19.5425 11.4117 19.317 11.1209 19.1605C10.83 19.0039 10.5014 18.9215 10.167 18.9214H1.93658C1.8632 18.9214 1.79283 18.8937 1.74095 18.8444C1.68907 18.7951 1.65992 18.7283 1.65992 18.6586V1.83958C1.65992 1.76988 1.68907 1.70303 1.74095 1.65375C1.79283 1.60447 1.8632 1.57678 1.93658 1.57678H26.2821C26.3555 1.57678 26.4258 1.60447 26.4777 1.65375C26.5296 1.70303 26.5588 1.76988 26.5588 1.83958V18.6586ZM8.85292 10.2491C8.85292 10.5089 8.77179 10.763 8.6198 10.9791C8.4678 11.1952 8.25176 11.3636 7.999 11.463C7.74624 11.5625 7.46812 11.5885 7.19979 11.5378C6.93146 11.4871 6.68499 11.362 6.49153 11.1782C6.29808 10.9944 6.16633 10.7603 6.11296 10.5054C6.05959 10.2505 6.08698 9.98633 6.19168 9.74623C6.29637 9.50613 6.47367 9.30091 6.70115 9.15653C6.92862 9.01215 7.19607 8.93508 7.46965 8.93508C7.83652 8.93508 8.18836 9.07352 8.44777 9.31994C8.70718 9.56636 8.85292 9.90058 8.85292 10.2491ZM15.4926 10.2491C15.4926 10.5089 15.4115 10.763 15.2595 10.9791C15.1075 11.1952 14.8915 11.3636 14.6387 11.463C14.3859 11.5625 14.1078 11.5885 13.8395 11.5378C13.5711 11.4871 13.3247 11.362 13.1312 11.1782C12.9378 10.9944 12.806 10.7603 12.7526 10.5054C12.6993 10.2505 12.7267 9.98633 12.8314 9.74623C12.9361 9.50613 13.1134 9.30091 13.3408 9.15653C13.5683 9.01215 13.8358 8.93508 14.1093 8.93508C14.4762 8.93508 14.828 9.07352 15.0875 9.31994C15.3469 9.56636 15.4926 9.90058 15.4926 10.2491ZM22.1323 10.2491C22.1323 10.5089 22.0512 10.763 21.8992 10.9791C21.7472 11.1952 21.5311 11.3636 21.2784 11.463C21.0256 11.5625 20.7475 11.5885 20.4792 11.5378C20.2108 11.4871 19.9644 11.362 19.7709 11.1782C19.5775 10.9944 19.4457 10.7603 19.3923 10.5054C19.339 10.2505 19.3664 9.98633 19.4711 9.74623C19.5758 9.50613 19.753 9.30091 19.9805 9.15653C20.208 9.01215 20.4754 8.93508 20.749 8.93508C21.1159 8.93508 21.4677 9.07352 21.7271 9.31994C21.9866 9.56636 22.1323 9.90058 22.1323 10.2491Z" fill="#0073E6"/>
</svg>
