<svg width="18" height="14" viewBox="0 0 18 14" fill="none" xmlns="http://www.w3.org/2000/svg">
<path d="M16.5496 0.747018L0.431835 4.98731C0.305759 5.01812 0.196423 5.07591 0.119036 5.15264C0.0416489 5.22937 6.29425e-05 5.32122 6.29425e-05 5.41542C6.29425e-05 5.50961 0.0416489 5.60146 0.119036 5.67819C0.287443 5.84517 0.551783 5.83201 0.788589 5.81915C4.28461 5.6293 10.4574 6.68888 10.1513 12.3743C10.1398 12.5869 10.1646 12.8277 10.3526 12.9277C10.4592 12.9845 10.5883 13.0163 10.7218 13.0188C10.8553 13.0213 10.9865 12.9943 11.0972 12.9416C11.208 12.889 11.2927 12.8132 11.3396 12.7249L17.3773 1.32689C17.4195 1.2455 17.4277 1.15728 17.401 1.07269C17.3743 0.988105 17.3138 0.9107 17.2267 0.849659C17.1395 0.788618 17.0294 0.746504 16.9094 0.728311C16.7894 0.710118 16.6645 0.71661 16.5496 0.747018Z" fill="#05254D"/>
</svg>
