<svg width="14" height="14" viewBox="0 0 14 14" fill="none" xmlns="http://www.w3.org/2000/svg">
<path d="M12.7477 0.6359L0.332583 5.18793C0.235472 5.22101 0.151251 5.28305 0.0916424 5.36542C0.032033 5.44779 0 5.54639 0 5.64751C0 5.74863 0.032033 5.84724 0.0916424 5.92961C0.209001 6.09178 0.434792 6.0933 0.634456 6.07893C3.33873 5.8843 8.07778 7.04073 7.81742 13.1635C7.80892 13.3634 7.8136 13.5929 7.97434 13.7121C8.05648 13.773 8.15588 13.8072 8.2587 13.8099C8.36151 13.8126 8.46261 13.7836 8.54791 13.7271C8.63321 13.6705 8.69846 13.5892 8.73456 13.4944L13.3853 1.2584C13.4178 1.17103 13.4241 1.07632 13.4035 0.985518C13.383 0.894712 13.3364 0.811616 13.2693 0.746087C13.2021 0.680559 13.1173 0.635348 13.0249 0.615817C12.9325 0.596287 12.8363 0.603257 12.7477 0.6359Z" fill="#05254D"/>
</svg>
