<svg width="14" height="14" viewBox="0 0 14 14" fill="none" xmlns="http://www.w3.org/2000/svg">
<path d="M12.8255 0.421148L0.410338 4.97318C0.313227 5.00625 0.229006 5.06829 0.169397 5.15066C0.109788 5.23303 0.077755 5.33164 0.077755 5.43276C0.077755 5.53388 0.109788 5.63249 0.169397 5.71486C0.286756 5.87703 0.512547 5.87855 0.712211 5.86418C3.41648 5.66954 8.15553 6.82598 7.89518 12.9487C7.88668 13.1486 7.89136 13.3782 8.05209 13.4974C8.13423 13.5583 8.23364 13.5924 8.33645 13.5951C8.43927 13.5978 8.54037 13.5688 8.62567 13.5123C8.71096 13.4558 8.77621 13.3744 8.81231 13.2797L13.463 1.04365C13.4955 0.956278 13.5019 0.861572 13.4813 0.770766C13.4607 0.67996 13.4141 0.596864 13.347 0.531335C13.2799 0.465807 13.1951 0.420596 13.1027 0.401065C13.0102 0.381535 12.914 0.388505 12.8255 0.421148Z" fill="#05254D"/>
</svg>
