<svg width="14" height="15" viewBox="0 0 14 15" fill="none" xmlns="http://www.w3.org/2000/svg">
<path d="M12.7478 0.955236L0.332683 5.50727C0.235571 5.54034 0.15135 5.60238 0.0917416 5.68475C0.0321321 5.76712 9.91821e-05 5.86573 9.91821e-05 5.96685C9.91821e-05 6.06797 0.0321321 6.16658 0.0917416 6.24895C0.2091 6.41112 0.434891 6.41264 0.634555 6.39827C3.33883 6.20363 8.07788 7.36006 7.81752 13.4828C7.80902 13.6827 7.8137 13.9123 7.97444 14.0315C8.05658 14.0924 8.15598 14.1265 8.2588 14.1292C8.36161 14.1319 8.46271 14.1029 8.54801 14.0464C8.63331 13.9898 8.69855 13.9085 8.73465 13.8138L13.3854 1.57774C13.4179 1.49037 13.4242 1.39566 13.4036 1.30485C13.3831 1.21405 13.3365 1.13095 13.2694 1.06542C13.2022 0.999895 13.1174 0.954684 13.025 0.935153C12.9326 0.915623 12.8364 0.922593 12.7478 0.955236Z" fill="#05254D"/>
</svg>
