<svg width="14" height="15" viewBox="0 0 14 15" fill="none" xmlns="http://www.w3.org/2000/svg">
<path d="M12.7477 0.956076L0.332583 5.50811C0.235472 5.54118 0.151251 5.60322 0.0916424 5.68559C0.032033 5.76796 0 5.86657 0 5.96769C0 6.06881 0.032033 6.16742 0.0916424 6.24979C0.209001 6.41196 0.434792 6.41348 0.634456 6.39911C3.33873 6.20447 8.07778 7.3609 7.81742 13.4836C7.80892 13.6836 7.8136 13.9131 7.97434 14.0323C8.05648 14.0932 8.15588 14.1274 8.2587 14.1301C8.36151 14.1327 8.46261 14.1038 8.54791 14.0472C8.63321 13.9907 8.69846 13.9094 8.73456 13.8146L13.3853 1.57858C13.4178 1.49121 13.4241 1.3965 13.4035 1.30569C13.383 1.21489 13.3364 1.13179 13.2693 1.06626C13.2021 1.00073 13.1173 0.955523 13.0249 0.935993C12.9325 0.916462 12.8363 0.923432 12.7477 0.956076Z" fill="#05254D"/>
</svg>
