<svg width="14" height="15" viewBox="0 0 14 15" fill="none" xmlns="http://www.w3.org/2000/svg">
<path d="M12.7479 0.984949L0.33274 5.53698C0.235628 5.57006 0.151407 5.63209 0.0917988 5.71446C0.0321894 5.79684 0.000156403 5.89544 0.000156403 5.99656C0.000156403 6.09768 0.0321894 6.19629 0.0917988 6.27866C0.209157 6.44083 0.434948 6.44235 0.634612 6.42798C3.33888 6.23334 8.07794 7.38978 7.81758 13.5125C7.80908 13.7124 7.81376 13.942 7.97449 14.0612C8.05663 14.1221 8.15604 14.1562 8.25885 14.1589C8.36167 14.1616 8.46277 14.1327 8.54807 14.0761C8.63337 14.0196 8.69861 13.9382 8.73471 13.8435L13.3854 1.60745C13.4179 1.52008 13.4243 1.42537 13.4037 1.33457C13.3831 1.24376 13.3365 1.16066 13.2694 1.09514C13.2023 1.02961 13.1175 0.984396 13.0251 0.964866C12.9326 0.945336 12.8364 0.952306 12.7479 0.984949Z" fill="#05254D"/>
</svg>
