<svg width="742" height="502" viewBox="0 0 742 502" fill="none" xmlns="http://www.w3.org/2000/svg">
<g opacity="0.2">
<path d="M467.802 446.883C466.883 447.56 466.423 448.865 465.23 448.574C464.235 448.332 464.508 446.735 463.987 445.953C463.405 445.079 462.105 444.976 462.389 443.877C462.673 442.778 464.023 442.689 464.961 442.186C465.8 441.736 466.184 440.797 467.178 441.039C468.173 441.282 468.353 442.78 468.873 443.561C469.456 444.435 470.303 444.638 470.019 445.737C469.786 446.64 468.505 446.366 467.802 446.883Z" fill="#05254D"/>
<path d="M467.802 446.883C466.883 447.56 466.423 448.865 465.23 448.574C464.235 448.332 464.508 446.735 463.987 445.953C463.405 445.079 462.105 444.976 462.389 443.877C462.673 442.778 464.023 442.689 464.961 442.186C465.8 441.736 466.184 440.797 467.178 441.039C468.173 441.282 468.353 442.78 468.873 443.561C469.456 444.435 470.303 444.638 470.019 445.737C469.786 446.64 468.505 446.366 467.802 446.883Z" stroke="#05254D" stroke-width="1.66773"/>
<path d="M11.9038 227.176C10.9845 227.852 10.5248 229.157 9.33187 228.867C8.33724 228.624 8.60971 227.027 8.08897 226.245C7.50686 225.372 6.20701 225.268 6.49112 224.169C6.77523 223.07 8.1249 222.981 9.06306 222.478C9.90206 222.028 10.2854 221.089 11.28 221.331C12.2747 221.574 12.4546 223.072 12.9753 223.853C13.5574 224.727 14.4049 224.93 14.1208 226.029C13.8873 226.932 12.6065 226.658 11.9038 227.176Z" fill="#05254D"/>
<path d="M11.9038 227.176C10.9845 227.852 10.5248 229.157 9.33187 228.867C8.33724 228.624 8.60971 227.027 8.08897 226.245C7.50686 225.372 6.20701 225.268 6.49112 224.169C6.77523 223.07 8.1249 222.981 9.06306 222.478C9.90206 222.028 10.2854 221.089 11.28 221.331C12.2747 221.574 12.4546 223.072 12.9753 223.853C13.5574 224.727 14.4049 224.93 14.1208 226.029C13.8873 226.932 12.6065 226.658 11.9038 227.176Z" stroke="#05254D" stroke-width="1.66773"/>
<path d="M162.5 141.662C161.581 142.339 161.121 143.644 159.928 143.353C158.933 143.111 159.206 141.513 158.685 140.732C158.103 139.858 156.803 139.755 157.087 138.656C157.371 137.557 158.721 137.468 159.659 136.965C160.498 136.515 160.882 135.576 161.876 135.818C162.871 136.061 163.051 137.559 163.571 138.34C164.154 139.214 165.001 139.417 164.717 140.516C164.484 141.419 163.203 141.145 162.5 141.662Z" fill="#05254D"/>
<path d="M162.5 141.662C161.581 142.339 161.121 143.644 159.928 143.353C158.933 143.111 159.206 141.513 158.685 140.732C158.103 139.858 156.803 139.755 157.087 138.656C157.371 137.557 158.721 137.468 159.659 136.965C160.498 136.515 160.882 135.576 161.876 135.818C162.871 136.061 163.051 137.559 163.571 138.34C164.154 139.214 165.001 139.417 164.717 140.516C164.484 141.419 163.203 141.145 162.5 141.662Z" stroke="#05254D" stroke-width="1.66773"/>
<path d="M132.949 402.502C132.03 403.179 131.57 404.484 130.377 404.194C129.382 403.951 129.655 402.354 129.134 401.572C128.552 400.698 127.252 400.595 127.536 399.496C127.82 398.397 129.17 398.308 130.108 397.805C130.947 397.355 131.331 396.416 132.325 396.658C133.32 396.901 133.5 398.399 134.02 399.18C134.603 400.054 135.45 400.257 135.166 401.356C134.932 402.259 133.652 401.985 132.949 402.502Z" fill="#05254D"/>
<path d="M132.949 402.502C132.03 403.179 131.57 404.484 130.377 404.194C129.382 403.951 129.655 402.354 129.134 401.572C128.552 400.698 127.252 400.595 127.536 399.496C127.82 398.397 129.17 398.308 130.108 397.805C130.947 397.355 131.331 396.416 132.325 396.658C133.32 396.901 133.5 398.399 134.02 399.18C134.603 400.054 135.45 400.257 135.166 401.356C134.932 402.259 133.652 401.985 132.949 402.502Z" stroke="#05254D" stroke-width="1.66773"/>
<path d="M205.444 360.526C204.83 360.98 204.522 361.853 203.725 361.659C203.059 361.496 203.242 360.427 202.893 359.904C202.504 359.32 201.634 359.25 201.824 358.515C202.014 357.78 202.918 357.719 203.545 357.383C204.106 357.082 204.362 356.454 205.028 356.616C205.694 356.779 205.814 357.781 206.163 358.304C206.552 358.888 207.119 359.025 206.929 359.76C206.773 360.363 205.915 360.18 205.444 360.526Z" fill="#05254D"/>
<path d="M205.444 360.526C204.83 360.98 204.522 361.853 203.725 361.659C203.059 361.496 203.242 360.427 202.893 359.904C202.504 359.32 201.634 359.25 201.824 358.515C202.014 357.78 202.918 357.719 203.545 357.383C204.106 357.082 204.362 356.454 205.028 356.616C205.694 356.779 205.814 357.781 206.163 358.304C206.552 358.888 207.119 359.025 206.929 359.76C206.773 360.363 205.915 360.18 205.444 360.526Z" stroke="#05254D" stroke-width="1.66773"/>
<path d="M222.386 21.5958C221.467 22.2721 221.007 23.5777 219.815 23.2868C218.82 23.0443 219.092 21.4469 218.572 20.6657C217.99 19.7918 216.69 19.688 216.974 18.5892C217.258 17.4903 218.608 17.4013 219.546 16.8981C220.385 16.4484 220.768 15.5092 221.763 15.7517C222.757 15.9942 222.937 17.492 223.458 18.2732C224.04 19.1471 224.888 19.3504 224.603 20.4493C224.37 21.3524 223.089 21.0781 222.386 21.5958Z" fill="#05254D"/>
<path d="M222.386 21.5958C221.467 22.2721 221.007 23.5777 219.815 23.2868C218.82 23.0443 219.092 21.4469 218.572 20.6657C217.99 19.7918 216.69 19.688 216.974 18.5892C217.258 17.4903 218.608 17.4013 219.546 16.8981C220.385 16.4484 220.768 15.5092 221.763 15.7517C222.757 15.9942 222.937 17.492 223.458 18.2732C224.04 19.1471 224.888 19.3504 224.603 20.4493C224.37 21.3524 223.089 21.0781 222.386 21.5958Z" stroke="#05254D" stroke-width="1.66773"/>
<path d="M446.666 294.858C445.747 295.534 445.287 296.84 444.094 296.549C443.1 296.307 443.372 294.709 442.851 293.928C442.269 293.054 440.969 292.95 441.254 291.851C441.538 290.753 442.887 290.664 443.826 290.16C444.665 289.711 445.048 288.772 446.042 289.014C447.037 289.257 447.217 290.754 447.738 291.536C448.32 292.409 449.167 292.613 448.883 293.712C448.65 294.615 447.369 294.34 446.666 294.858Z" fill="#05254D"/>
<path d="M446.666 294.858C445.747 295.534 445.287 296.84 444.094 296.549C443.1 296.307 443.372 294.709 442.851 293.928C442.269 293.054 440.969 292.95 441.254 291.851C441.538 290.753 442.887 290.664 443.826 290.16C444.665 289.711 445.048 288.772 446.042 289.014C447.037 289.257 447.217 290.754 447.738 291.536C448.32 292.409 449.167 292.613 448.883 293.712C448.65 294.615 447.369 294.34 446.666 294.858Z" stroke="#05254D" stroke-width="1.66773"/>
<path d="M427.966 351.532C427.899 349.836 427.881 345.583 428.936 345.337C429.991 345.09 432.656 347.444 433.953 348.34C434.683 348.843 435.853 346.361 436.588 346.529C437.339 346.7 437.035 348.888 437.744 348.788C439.202 348.582 440.753 348.539 442.187 349.397C442.982 350.792 441.052 352.611 439.997 354.086C439.424 354.889 441.798 355.455 442.069 356.585C442.34 357.716 438.229 356.963 438.618 358.587C438.859 359.662 439.144 360.596 437.917 361.265C435.931 362.349 433.06 359.119 431.015 358.652C428.727 358.128 426.29 360.28 425.389 358.699C424.754 357.586 427.361 355.657 428.092 354.615C428.525 353.999 424.576 352.984 424.704 352.294C424.843 351.544 427.996 352.291 427.966 351.532Z" fill="#05254D"/>
<path d="M427.966 351.532C427.899 349.836 427.881 345.583 428.936 345.337C429.991 345.09 432.656 347.444 433.953 348.34C434.683 348.843 435.853 346.361 436.588 346.529C437.339 346.7 437.035 348.888 437.744 348.788C439.202 348.582 440.753 348.539 442.187 349.397C442.982 350.792 441.052 352.611 439.997 354.086C439.424 354.889 441.798 355.455 442.069 356.585C442.34 357.716 438.229 356.963 438.618 358.587C438.859 359.662 439.144 360.596 437.917 361.265C435.931 362.349 433.06 359.119 431.015 358.652C428.727 358.128 426.29 360.28 425.389 358.699C424.754 357.586 427.361 355.657 428.092 354.615C428.525 353.999 424.576 352.984 424.704 352.294C424.843 351.544 427.996 352.291 427.966 351.532Z" stroke="#05254D" stroke-width="1.66773"/>
<path d="M128.704 266.685C129.834 265.346 132.777 262.083 133.73 262.6C134.682 263.117 135.015 266.699 135.351 268.25C135.538 269.123 138.13 268.01 138.558 268.631C138.993 269.263 137.248 270.731 137.842 271.129C139.063 271.947 140.241 272.951 140.704 274.565C140.321 276.165 137.63 276.265 135.823 276.687C134.84 276.917 136.203 278.937 135.617 279.981C135.03 281.025 132.514 277.699 131.671 279.2C131.102 280.182 130.663 281.089 129.291 280.78C127.068 280.279 127.191 275.892 126.005 274.165C124.677 272.234 121.379 272.246 121.812 270.437C122.117 269.162 125.386 269.433 126.652 269.126C127.4 268.946 125.187 265.528 125.761 265.086C126.385 264.607 128.199 267.285 128.704 266.685Z" fill="#05254D"/>
<path d="M128.704 266.685C129.834 265.346 132.777 262.083 133.73 262.6C134.682 263.117 135.015 266.699 135.351 268.25C135.538 269.123 138.13 268.01 138.558 268.631C138.993 269.263 137.248 270.731 137.842 271.129C139.063 271.947 140.241 272.951 140.704 274.565C140.321 276.165 137.63 276.265 135.823 276.687C134.84 276.917 136.203 278.937 135.617 279.981C135.03 281.025 132.514 277.699 131.671 279.2C131.102 280.182 130.663 281.089 129.291 280.78C127.068 280.279 127.191 275.892 126.005 274.165C124.677 272.234 121.379 272.246 121.812 270.437C122.117 269.162 125.386 269.433 126.652 269.126C127.4 268.946 125.187 265.528 125.761 265.086C126.385 264.607 128.199 267.285 128.704 266.685Z" stroke="#05254D" stroke-width="1.66773"/>
<path d="M84.7494 50.5139C86.5052 49.5657 90.9891 47.3389 91.7782 48.2762C92.5673 49.2136 91.4185 53.1288 91.1214 54.9038C90.9541 55.9022 94.162 55.7959 94.3528 56.6272C94.5474 57.4729 92.0856 58.3027 92.5469 58.9682C93.4933 60.3329 94.3184 61.8785 94.1311 63.7723C93.0555 65.3021 90.1674 64.2969 88.0809 63.9981C86.9448 63.8348 87.5375 66.5275 86.4803 67.3885C85.423 68.2495 84.1556 63.7021 82.636 64.94C81.6218 65.7426 80.7803 66.5156 79.4583 65.6234C77.3174 64.1786 79.2899 59.6028 78.7596 57.2928C78.1658 54.7083 74.6726 53.3628 75.8893 51.6324C76.7469 50.4128 80.0902 52.0444 81.5571 52.2423C82.4235 52.3599 81.5177 47.8424 82.3097 47.614C83.1707 47.3659 83.9641 50.9376 84.7494 50.5139Z" fill="#05254D"/>
<path d="M84.7494 50.5139C86.5052 49.5657 90.9891 47.3389 91.7782 48.2762C92.5673 49.2136 91.4185 53.1288 91.1214 54.9038C90.9541 55.9022 94.162 55.7959 94.3528 56.6272C94.5474 57.4729 92.0856 58.3027 92.5469 58.9682C93.4933 60.3329 94.3184 61.8785 94.1311 63.7723C93.0555 65.3021 90.1674 64.2969 88.0809 63.9981C86.9448 63.8348 87.5375 66.5275 86.4803 67.3885C85.423 68.2495 84.1556 63.7021 82.636 64.94C81.6218 65.7426 80.7803 66.5156 79.4583 65.6234C77.3174 64.1786 79.2899 59.6028 78.7596 57.2928C78.1658 54.7083 74.6726 53.3628 75.8893 51.6324C76.7469 50.4128 80.0902 52.0444 81.5571 52.2423C82.4235 52.3599 81.5177 47.8424 82.3097 47.614C83.1707 47.3659 83.9641 50.9376 84.7494 50.5139Z" stroke="#05254D" stroke-width="1.66773"/>
<path d="M95.5637 233.724C98.3325 233.691 101.291 232.777 100.349 234.668C99.9718 235.426 98.1509 235.911 96.5128 236.765C95.8645 237.103 97.8641 239.905 97.3733 240.398C96.8889 240.885 93.8584 239.019 93.5016 239.547C92.2684 241.375 91.663 243.08 90.7508 242.074C90.3271 241.232 90.5811 239.979 90.5961 238.677C90.6046 237.949 88.1404 238.063 87.8406 237.367C87.4492 236.461 90.2693 235.556 89.7102 234.932C89.072 234.22 87.4668 232.931 87.328 231.803C87.1208 230.121 89.9979 231.556 92.0737 232.82C92.6083 233.146 94.0303 230.337 94.5105 230.565C95.3097 230.279 95.3004 232.933 95.5637 233.724Z" fill="#05254D"/>
<path d="M95.5637 233.724C98.3325 233.691 101.291 232.777 100.349 234.668C99.9718 235.426 98.1509 235.911 96.5128 236.765C95.8645 237.103 97.8641 239.905 97.3733 240.398C96.8889 240.885 93.8584 239.019 93.5016 239.547C92.2684 241.375 91.663 243.08 90.7508 242.074C90.3271 241.232 90.5811 239.979 90.5961 238.677C90.6046 237.949 88.1404 238.063 87.8406 237.367C87.4492 236.461 90.2693 235.556 89.7102 234.932C89.072 234.22 87.4668 232.931 87.328 231.803C87.1208 230.121 89.9979 231.556 92.0737 232.82C92.6083 233.146 94.0303 230.337 94.5105 230.565C95.3097 230.279 95.3004 232.933 95.5637 233.724Z" stroke="#05254D" stroke-width="1.66773"/>
<path d="M691.556 147.292C694.325 147.259 697.283 146.346 696.341 148.237C695.964 148.995 694.143 149.48 692.505 150.334C691.857 150.672 693.857 153.474 693.366 153.967C692.881 154.454 689.851 152.588 689.494 153.116C688.261 154.944 687.655 156.649 686.743 155.643C686.32 154.801 686.574 153.548 686.589 152.245C686.597 151.518 684.133 151.632 683.833 150.936C683.442 150.029 686.262 149.125 685.703 148.501C685.064 147.789 683.459 146.5 683.32 145.372C683.113 143.689 685.99 145.124 688.066 146.389C688.601 146.714 690.023 143.906 690.503 144.134C691.302 143.848 691.293 146.502 691.556 147.292Z" fill="#05254D"/>
<path d="M691.556 147.292C694.325 147.259 697.283 146.346 696.341 148.237C695.964 148.995 694.143 149.48 692.505 150.334C691.857 150.672 693.857 153.474 693.366 153.967C692.881 154.454 689.851 152.588 689.494 153.116C688.261 154.944 687.655 156.649 686.743 155.643C686.32 154.801 686.574 153.548 686.589 152.245C686.597 151.518 684.133 151.632 683.833 150.936C683.442 150.029 686.262 149.125 685.703 148.501C685.064 147.789 683.459 146.5 683.32 145.372C683.113 143.689 685.99 145.124 688.066 146.389C688.601 146.714 690.023 143.906 690.503 144.134C691.302 143.848 691.293 146.502 691.556 147.292Z" stroke="#05254D" stroke-width="1.66773"/>
<path d="M124.171 25.2095C124.747 27.8684 126.233 30.5237 124.17 30.0193C123.345 29.8173 122.506 28.168 121.337 26.7718C120.875 26.2192 118.485 28.7409 117.899 28.373C117.321 28.0101 118.58 24.6946 117.986 24.4633C115.93 23.6646 114.118 23.4446 114.939 22.3515C115.692 21.764 116.986 21.7417 118.282 21.4787C119.006 21.332 118.411 18.9821 119.042 18.5452C119.866 17.975 121.316 20.4992 121.826 19.8276C122.408 19.0611 123.374 17.2401 124.466 16.8662C126.096 16.3082 125.236 19.386 124.387 21.6552C124.169 22.2396 127.234 23.0108 127.102 23.522C127.542 24.2311 124.905 24.7875 124.171 25.2095Z" fill="#05254D"/>
<path d="M124.171 25.2095C124.747 27.8684 126.233 30.5237 124.17 30.0193C123.345 29.8173 122.506 28.168 121.337 26.7718C120.875 26.2192 118.485 28.7409 117.899 28.373C117.321 28.0101 118.58 24.6946 117.986 24.4633C115.93 23.6646 114.118 23.4446 114.939 22.3515C115.692 21.764 116.986 21.7417 118.282 21.4787C119.006 21.332 118.411 18.9821 119.042 18.5452C119.866 17.975 121.316 20.4992 121.826 19.8276C122.408 19.0611 123.374 17.2401 124.466 16.8662C126.096 16.3082 125.236 19.386 124.387 21.6552C124.169 22.2396 127.234 23.0108 127.102 23.522C127.542 24.2311 124.905 24.7875 124.171 25.2095Z" stroke="#05254D" stroke-width="1.66773"/>
<path d="M481.866 386.542C481.222 389.19 481.404 392.222 479.763 390.886C478.846 390.139 479.139 386.834 477.842 384.78C476.225 382.217 473.213 380.841 474.784 380.019C475.721 379.809 476.898 380.341 478.183 380.657C478.9 380.833 479.39 378.457 480.151 378.332C481.144 378.168 481.349 381.067 482.103 380.678C482.963 380.234 484.631 379.001 485.78 379.13C487.495 379.322 485.374 381.735 483.615 383.422C483.163 383.857 485.592 385.862 485.249 386.267C485.336 387.095 482.713 386.474 481.866 386.542Z" fill="#05254D"/>
<path d="M481.866 386.542C481.222 389.19 481.404 392.222 479.763 390.886C478.846 390.139 479.139 386.834 477.842 384.78C476.225 382.217 473.213 380.841 474.784 380.019C475.721 379.809 476.898 380.341 478.183 380.657C478.9 380.833 479.39 378.457 480.151 378.332C481.144 378.168 481.349 381.067 482.103 380.678C482.963 380.234 484.631 379.001 485.78 379.13C487.495 379.322 485.374 381.735 483.615 383.422C483.163 383.857 485.592 385.862 485.249 386.267C485.336 387.095 482.713 386.474 481.866 386.542Z" stroke="#05254D" stroke-width="1.66773"/>
<path d="M39.7546 167.712C38.7825 167.712 37.9932 168.487 37.9932 169.44C37.9932 170.394 38.7825 171.168 39.7546 171.168C40.7266 171.168 41.5159 170.394 41.5159 169.44C41.5159 168.487 40.7266 167.712 39.7546 167.712Z" fill="#05254D"/>
<path d="M39.7546 167.712C38.7825 167.712 37.9932 168.487 37.9932 169.44C37.9932 170.394 38.7825 171.168 39.7546 171.168C40.7266 171.168 41.5159 170.394 41.5159 169.44C41.5159 168.487 40.7266 167.712 39.7546 167.712Z" stroke="#05254D" stroke-width="1.66773"/>
<path d="M84.102 387.785C83.1299 387.785 82.3407 388.559 82.3407 389.513C82.3407 390.466 83.1299 391.241 84.102 391.241C85.074 391.241 85.8633 390.466 85.8633 389.513C85.8633 388.559 85.074 387.785 84.102 387.785Z" fill="#05254D"/>
<path d="M84.102 387.785C83.1299 387.785 82.3407 388.559 82.3407 389.513C82.3407 390.466 83.1299 391.241 84.102 391.241C85.074 391.241 85.8633 390.466 85.8633 389.513C85.8633 388.559 85.074 387.785 84.102 387.785Z" stroke="#05254D" stroke-width="1.66773"/>
<path d="M457.785 396.058C456.813 396.058 456.024 396.832 456.024 397.785C456.024 398.739 456.813 399.513 457.785 399.513C458.758 399.513 459.547 398.739 459.547 397.785C459.547 396.832 458.758 396.058 457.785 396.058Z" fill="#05254D"/>
<path d="M457.785 396.058C456.813 396.058 456.024 396.832 456.024 397.785C456.024 398.739 456.813 399.513 457.785 399.513C458.758 399.513 459.547 398.739 459.547 397.785C459.547 396.832 458.758 396.058 457.785 396.058Z" stroke="#05254D" stroke-width="1.66773"/>
<path d="M165.693 1C164.72 1 163.931 1.7742 163.931 2.72775C163.931 3.68129 164.72 4.45549 165.693 4.45549C166.665 4.45549 167.454 3.68129 167.454 2.72775C167.454 1.7742 166.665 1 165.693 1Z" fill="#05254D"/>
<path d="M165.693 1C164.72 1 163.931 1.7742 163.931 2.72775C163.931 3.68129 164.72 4.45549 165.693 4.45549C166.665 4.45549 167.454 3.68129 167.454 2.72775C167.454 1.7742 166.665 1 165.693 1Z" stroke="#05254D" stroke-width="1.66773"/>
<path d="M231.743 218.675C230.771 218.675 229.981 219.449 229.981 220.403C229.981 221.357 230.771 222.131 231.743 222.131C232.715 222.131 233.504 221.357 233.504 220.403C233.504 219.449 232.715 218.675 231.743 218.675Z" fill="#05254D"/>
<path d="M231.743 218.675C230.771 218.675 229.981 219.449 229.981 220.403C229.981 221.357 230.771 222.131 231.743 222.131C232.715 222.131 233.504 221.357 233.504 220.403C233.504 219.449 232.715 218.675 231.743 218.675Z" stroke="#05254D" stroke-width="1.66773"/>
<path d="M67.9372 259.705C66.6158 259.273 66.1759 257.635 66.1759 256.681C66.1759 255.727 66.9645 254.953 67.9372 254.953C68.9099 254.953 70.5784 255.727 70.5784 256.681C70.5784 257.635 69.2586 260.136 67.9372 259.705Z" fill="#05254D"/>
<path d="M67.9372 259.705C66.6158 259.273 66.1759 257.635 66.1759 256.681C66.1759 255.727 66.9645 254.953 67.9372 254.953C68.9099 254.953 70.5784 255.727 70.5784 256.681C70.5784 257.635 69.2586 260.136 67.9372 259.705Z" stroke="#05254D" stroke-width="1.66773"/>
<path d="M100.019 407.457C100.45 408.759 99.369 410.074 98.587 410.637C97.8049 411.201 96.7023 411.032 96.1244 410.261C95.5464 409.49 95.1892 407.711 95.9713 407.148C96.7534 406.585 99.5877 406.155 100.019 407.457Z" fill="#05254D"/>
<path d="M100.019 407.457C100.45 408.759 99.369 410.074 98.587 410.637C97.8049 411.201 96.7023 411.032 96.1244 410.261C95.5464 409.49 95.1892 407.711 95.9713 407.148C96.7534 406.585 99.5877 406.155 100.019 407.457Z" stroke="#05254D" stroke-width="1.66773"/>
<path d="M60.892 14.8205C59.9199 14.8205 59.1307 15.5947 59.1307 16.5483C59.1307 17.5018 59.9199 18.276 60.892 18.276C61.8641 18.276 62.6533 17.5018 62.6533 16.5483C62.6533 15.5947 61.8641 14.8205 60.892 14.8205Z" fill="#05254D"/>
<path d="M60.892 14.8205C59.9199 14.8205 59.1307 15.5947 59.1307 16.5483C59.1307 17.5018 59.9199 18.276 60.892 18.276C61.8641 18.276 62.6533 17.5018 62.6533 16.5483C62.6533 15.5947 61.8641 14.8205 60.892 14.8205Z" stroke="#05254D" stroke-width="1.66773"/>
<path d="M2.76701 84.7869C1.79494 84.7869 1.00569 85.5611 1.00569 86.5146C1.00569 87.4682 1.79494 88.2424 2.76701 88.2424C3.73908 88.2424 4.52832 87.4682 4.52832 86.5146C4.52832 85.5611 3.73908 84.7869 2.76701 84.7869Z" fill="#05254D"/>
<path d="M2.76701 84.7869C1.79494 84.7869 1.00569 85.5611 1.00569 86.5146C1.00569 87.4682 1.79494 88.2424 2.76701 88.2424C3.73908 88.2424 4.52832 87.4682 4.52832 86.5146C4.52832 85.5611 3.73908 84.7869 2.76701 84.7869Z" stroke="#05254D" stroke-width="1.66773"/>
<path d="M333.267 251.041C332.295 251.041 331.505 251.815 331.505 252.768C331.505 253.722 332.295 254.496 333.267 254.496C334.239 254.496 335.028 253.722 335.028 252.768C335.028 251.815 334.239 251.041 333.267 251.041Z" fill="#05254D"/>
<path d="M333.267 251.041C332.295 251.041 331.505 251.815 331.505 252.768C331.505 253.722 332.295 254.496 333.267 254.496C334.239 254.496 335.028 253.722 335.028 252.768C335.028 251.815 334.239 251.041 333.267 251.041Z" stroke="#05254D" stroke-width="1.66773"/>
<path d="M287.471 258.818C285.527 258.818 283.948 260.366 283.948 262.273C283.948 264.181 285.527 265.729 287.471 265.729C289.415 265.729 290.994 264.181 290.994 262.273C290.994 260.366 289.415 258.818 287.471 258.818Z" fill="#05254D"/>
<path d="M287.471 258.818C285.527 258.818 283.948 260.366 283.948 262.273C283.948 264.181 285.527 265.729 287.471 265.729C289.415 265.729 290.994 264.181 290.994 262.273C290.994 260.366 289.415 258.818 287.471 258.818Z" stroke="#05254D" stroke-width="1.66773"/>
<path d="M505.681 256.606L518.268 222.65M615.823 171.716L654.371 209.53M589.074 167.858L523.775 190.237M514.335 201.813L553.672 250.432M505.681 272.04L550.524 330.693M589.074 272.04L568.619 326.833M574.912 341.496L644.931 366.963M665.386 354.616L687.414 289.791M574.912 256.606L649.651 219.562M665.386 222.65L700.788 289.791" stroke="#05254D" stroke-width="1.66773" stroke-linecap="round" stroke-linejoin="round"/>
<path d="M598.837 165.679C598.3 164.843 597.029 162.702 597.488 162.278C597.946 161.855 599.988 162.287 600.908 162.372C601.425 162.42 601.278 160.837 601.699 160.713C602.128 160.587 602.623 161.777 602.952 161.525C603.626 161.009 604.395 160.548 605.372 160.574C606.188 161.053 605.755 162.518 605.661 163.562C605.61 164.129 606.974 163.742 607.446 164.236C607.919 164.73 605.621 165.515 606.3 166.224C606.741 166.698 607.162 167.089 606.743 167.773C606.063 168.883 603.657 168.066 602.487 168.41C601.178 168.793 600.588 170.57 599.665 170.027C599.015 169.646 599.756 167.933 599.816 167.2C599.851 166.767 597.56 167.373 597.42 166.989C597.267 166.571 599.077 166.053 598.837 165.679Z" fill="#05254D"/>
<path d="M598.837 165.679C598.3 164.843 597.029 162.702 597.488 162.278C597.946 161.855 599.988 162.287 600.908 162.372C601.425 162.42 601.278 160.837 601.699 160.713C602.128 160.587 602.623 161.777 602.952 161.525C603.626 161.009 604.395 160.548 605.372 160.574C606.188 161.053 605.755 162.518 605.661 163.562C605.61 164.129 606.974 163.742 607.446 164.236C607.919 164.73 605.621 165.515 606.3 166.224C606.741 166.698 607.162 167.089 606.743 167.773C606.063 168.883 603.657 168.066 602.487 168.41C601.178 168.793 600.588 170.57 599.665 170.027C599.015 169.646 599.756 167.933 599.816 167.2C599.851 166.767 597.56 167.373 597.42 166.989C597.267 166.571 599.077 166.053 598.837 165.679Z" stroke="#05254D" stroke-width="0.989456"/>
<path d="M631.715 27.3822C632.286 28.5856 633.609 31.6487 632.926 32.1376C632.242 32.6266 629.598 31.7139 628.388 31.4495C627.707 31.3005 627.631 33.4347 627.049 33.5305C626.455 33.6276 626.001 31.9603 625.521 32.2415C624.534 32.8188 623.43 33.307 622.134 33.111C621.13 32.3381 621.959 30.4567 622.263 29.0813C622.429 28.333 620.546 28.6242 620.002 27.8883C619.458 27.1524 622.652 26.484 621.87 25.4268C621.365 24.7225 620.871 24.1328 621.548 23.2892C622.644 21.9223 625.706 23.4074 627.323 23.1421C629.132 22.8461 630.224 20.5757 631.359 21.4504C632.159 22.0665 630.878 24.2266 630.672 25.1938C630.551 25.7663 633.706 25.3357 633.827 25.8707C633.958 26.4525 631.459 26.8445 631.715 27.3822Z" fill="#05254D"/>
<path d="M631.715 27.3822C632.286 28.5856 633.609 31.6487 632.926 32.1376C632.242 32.6266 629.598 31.7139 628.388 31.4495C627.707 31.3005 627.631 33.4347 627.049 33.5305C626.455 33.6276 626.001 31.9603 625.521 32.2415C624.534 32.8188 623.43 33.307 622.134 33.111C621.13 32.3381 621.959 30.4567 622.263 29.0813C622.429 28.333 620.546 28.6242 620.002 27.8883C619.458 27.1524 622.652 26.484 621.87 25.4268C621.365 24.7225 620.871 24.1328 621.548 23.2892C622.644 21.9223 625.706 23.4074 627.323 23.1421C629.132 22.8461 630.224 20.5757 631.359 21.4504C632.159 22.0665 630.878 24.2266 630.672 25.1938C630.551 25.7663 633.706 25.3357 633.827 25.8707C633.958 26.4525 631.459 26.8445 631.715 27.3822Z" stroke="#05254D" stroke-width="1.32896"/>
<path d="M655.157 303.683L645.716 331.465M635.489 339.183L619.755 333.781M611.888 322.976L626.049 287.477M640.209 281.303L655.157 287.477" stroke="#05254D" stroke-width="1.66773" stroke-linecap="round" stroke-linejoin="round"/>
<path d="M643.812 340.803C643.37 341.261 643.245 342.023 642.554 341.972C641.979 341.929 641.971 341.024 641.604 340.64C641.195 340.212 640.462 340.274 640.511 339.643C640.56 339.012 641.301 338.837 641.77 338.475C642.19 338.15 642.311 337.597 642.886 337.64C643.461 337.684 643.711 338.491 644.077 338.874C644.486 339.303 644.977 339.338 644.928 339.969C644.889 340.489 644.151 340.453 643.812 340.803Z" fill="#05254D"/>
<path d="M643.812 340.803C643.37 341.261 643.245 342.023 642.554 341.972C641.979 341.929 641.971 341.024 641.604 340.64C641.195 340.212 640.462 340.274 640.511 339.643C640.56 339.012 641.301 338.837 641.77 338.475C642.19 338.15 642.311 337.597 642.886 337.64C643.461 337.684 643.711 338.491 644.077 338.874C644.486 339.303 644.977 339.338 644.928 339.969C644.889 340.489 644.151 340.453 643.812 340.803Z" stroke="#05254D" stroke-width="1.66773"/>
<path d="M662.396 368.847C664.752 368.819 667.27 368.04 666.468 369.651C666.147 370.295 664.598 370.709 663.204 371.436C662.653 371.724 664.354 374.106 663.936 374.526C663.524 374.94 660.944 373.353 660.641 373.803C659.591 375.357 659.075 376.809 658.3 375.953C657.938 375.237 658.155 374.17 658.168 373.061C658.175 372.442 656.078 372.539 655.822 371.947C655.489 371.174 657.889 370.406 657.413 369.875C656.87 369.269 655.503 368.173 655.386 367.213C655.209 365.78 657.659 366.999 659.426 368.076C659.88 368.353 661.091 365.965 661.5 366.159C662.18 365.916 662.171 368.174 662.396 368.847Z" fill="#05254D"/>
<path d="M662.396 368.847C664.752 368.819 667.27 368.04 666.468 369.651C666.147 370.295 664.598 370.709 663.204 371.436C662.653 371.724 664.354 374.106 663.936 374.526C663.524 374.94 660.944 373.353 660.641 373.803C659.591 375.357 659.075 376.809 658.3 375.953C657.938 375.237 658.155 374.17 658.168 373.061C658.175 372.442 656.078 372.539 655.822 371.947C655.489 371.174 657.889 370.406 657.413 369.875C656.87 369.269 655.503 368.173 655.386 367.213C655.209 365.78 657.659 366.999 659.426 368.076C659.88 368.353 661.091 365.965 661.5 366.159C662.18 365.916 662.171 368.174 662.396 368.847Z" stroke="#05254D" stroke-width="1.66773"/>
<path d="M565.043 257.506C566.573 257.236 568.121 256.462 567.787 257.59C567.653 258.043 566.694 258.474 565.871 259.094C565.545 259.339 566.93 260.702 566.707 261.019C566.487 261.33 564.624 260.578 564.479 260.902C563.977 262.021 563.811 263.015 563.207 262.544C562.889 262.118 562.904 261.406 562.783 260.686C562.715 260.285 561.362 260.571 561.126 260.215C560.82 259.75 562.291 258.994 561.92 258.701C561.496 258.367 560.479 257.803 560.29 257.194C560.008 256.285 561.744 256.815 563.019 257.324C563.347 257.455 563.857 255.778 564.145 255.859C564.559 255.629 564.818 257.095 565.043 257.506Z" fill="#05254D"/>
<path d="M565.043 257.506C566.573 257.236 568.121 256.462 567.787 257.59C567.653 258.043 566.694 258.474 565.871 259.094C565.545 259.339 566.93 260.702 566.707 261.019C566.487 261.33 564.624 260.578 564.479 260.902C563.977 262.021 563.811 263.015 563.207 262.544C562.889 262.118 562.904 261.406 562.783 260.686C562.715 260.285 561.362 260.571 561.126 260.215C560.82 259.75 562.291 258.994 561.92 258.701C561.496 258.367 560.479 257.803 560.29 257.194C560.008 256.285 561.744 256.815 563.019 257.324C563.347 257.455 563.857 255.778 564.145 255.859C564.559 255.629 564.818 257.095 565.043 257.506Z" stroke="#05254D" stroke-width="1.66773"/>
<path d="M612.247 330.049C613.777 329.778 615.324 329.005 614.99 330.133C614.857 330.586 613.897 331.017 613.074 331.637C612.748 331.882 614.133 333.245 613.91 333.562C613.69 333.873 611.828 333.12 611.683 333.445C611.181 334.564 611.015 335.558 610.41 335.086C610.093 334.661 610.107 333.948 609.987 333.229C609.918 332.828 608.566 333.114 608.33 332.758C608.023 332.292 609.495 331.537 609.123 331.244C608.699 330.91 607.683 330.346 607.494 329.737C607.212 328.827 608.947 329.358 610.223 329.866C610.55 329.997 611.06 328.321 611.349 328.402C611.763 328.172 612.022 329.638 612.247 330.049Z" fill="#05254D"/>
<path d="M612.247 330.049C613.777 329.778 615.324 329.005 614.99 330.133C614.857 330.586 613.897 331.017 613.074 331.637C612.748 331.882 614.133 333.245 613.91 333.562C613.69 333.873 611.828 333.12 611.683 333.445C611.181 334.564 611.015 335.558 610.41 335.086C610.093 334.661 610.107 333.948 609.987 333.229C609.918 332.828 608.566 333.114 608.33 332.758C608.023 332.292 609.495 331.537 609.123 331.244C608.699 330.91 607.683 330.346 607.494 329.737C607.212 328.827 608.947 329.358 610.223 329.866C610.55 329.997 611.06 328.321 611.349 328.402C611.763 328.172 612.022 329.638 612.247 330.049Z" stroke="#05254D" stroke-width="1.66773"/>
<path d="M659.523 218.384C658.741 218.96 658.349 220.071 657.334 219.823C656.487 219.617 656.718 218.257 656.276 217.593C655.781 216.849 654.674 216.761 654.916 215.825C655.158 214.89 656.307 214.813 657.106 214.385C657.819 214.002 658.145 213.204 658.992 213.41C659.839 213.617 659.994 214.892 660.436 215.557C660.932 216.3 661.652 216.473 661.41 217.408C661.211 218.176 660.122 217.944 659.523 218.384Z" fill="#05254D"/>
<path d="M659.523 218.384C658.741 218.96 658.349 220.071 657.334 219.823C656.487 219.617 656.718 218.257 656.276 217.593C655.781 216.849 654.674 216.761 654.916 215.825C655.158 214.89 656.307 214.813 657.106 214.385C657.819 214.002 658.145 213.204 658.992 213.41C659.839 213.617 659.994 214.892 660.436 215.557C660.932 216.3 661.652 216.473 661.41 217.408C661.211 218.176 660.122 217.944 659.523 218.384Z" stroke="#05254D" stroke-width="1.66773"/>
<path d="M661.097 297.101C660.315 297.677 659.923 298.788 658.908 298.54C658.061 298.334 658.292 296.974 657.85 296.31C657.355 295.566 656.248 295.478 656.49 294.542C656.732 293.607 657.881 293.53 658.68 293.102C659.393 292.719 659.719 291.921 660.566 292.127C661.413 292.334 661.568 293.609 662.01 294.274C662.505 295.018 663.226 295.19 662.984 296.125C662.785 296.893 661.696 296.661 661.097 297.101Z" fill="#05254D"/>
<path d="M661.097 297.101C660.315 297.677 659.923 298.788 658.908 298.54C658.061 298.334 658.292 296.974 657.85 296.31C657.355 295.566 656.248 295.478 656.49 294.542C656.732 293.607 657.881 293.53 658.68 293.102C659.393 292.719 659.719 291.921 660.566 292.127C661.413 292.334 661.568 293.609 662.01 294.274C662.505 295.018 663.226 295.19 662.984 296.125C662.785 296.893 661.696 296.661 661.097 297.101Z" stroke="#05254D" stroke-width="1.66773"/>
<path d="M503.254 265.857C502.178 266.037 501.157 265.329 500.973 264.274C500.789 263.219 501.51 262.217 502.586 262.037C503.661 261.856 504.683 262.564 504.867 263.619C505.051 264.674 504.329 265.676 503.254 265.857Z" fill="#05254D"/>
<path d="M503.254 265.857C502.178 266.037 501.157 265.329 500.973 264.274C500.789 263.219 501.51 262.217 502.586 262.037C503.661 261.856 504.683 262.564 504.867 263.619C505.051 264.674 504.329 265.676 503.254 265.857Z" stroke="#05254D" stroke-width="1.66773"/>
<path d="M514.405 192.622C514.988 194.035 516.077 195.363 514.882 195.273C514.405 195.238 513.776 194.407 512.989 193.744C512.678 193.482 511.602 195.09 511.241 194.941C510.884 194.794 511.254 192.852 510.9 192.778C509.68 192.526 508.653 192.571 509 191.893C509.359 191.5 510.076 191.369 510.768 191.105C511.154 190.958 510.591 189.718 510.899 189.419C511.299 189.029 512.354 190.287 512.57 189.87C512.818 189.393 513.171 188.303 513.74 187.996C514.589 187.539 514.418 189.315 514.172 190.643C514.108 190.985 515.886 191.129 515.863 191.423C516.178 191.773 514.77 192.321 514.405 192.622Z" fill="#05254D"/>
<path d="M514.405 192.622C514.988 194.035 516.077 195.363 514.882 195.273C514.405 195.238 513.776 194.407 512.989 193.744C512.678 193.482 511.602 195.09 511.241 194.941C510.884 194.794 511.254 192.852 510.9 192.778C509.68 192.526 508.653 192.571 509 191.893C509.359 191.5 510.076 191.369 510.768 191.105C511.154 190.958 510.591 189.718 510.899 189.419C511.299 189.029 512.354 190.287 512.57 189.87C512.818 189.393 513.171 188.303 513.74 187.996C514.589 187.539 514.418 189.315 514.172 190.643C514.108 190.985 515.886 191.129 515.863 191.423C516.178 191.773 514.77 192.321 514.405 192.622Z" stroke="#05254D" stroke-width="1.66773"/>
<path d="M711.879 301.72C712.368 303.983 713.633 306.244 711.878 305.814C711.175 305.642 710.461 304.238 709.466 303.05C709.073 302.58 707.041 304.727 706.542 304.413C706.05 304.104 707.121 301.282 706.615 301.085C704.865 300.404 703.324 300.217 704.022 299.287C704.661 298.788 705.764 298.768 706.867 298.544C707.484 298.419 706.977 296.42 707.515 296.047C708.216 295.561 709.449 297.71 709.883 297.139C710.379 296.487 711.2 294.938 712.131 294.62C713.519 294.145 712.786 296.763 712.063 298.695C711.877 299.191 714.487 299.849 714.374 300.285C714.748 300.888 712.502 301.36 711.879 301.72Z" fill="#05254D"/>
<path d="M711.879 301.72C712.368 303.983 713.633 306.244 711.878 305.814C711.175 305.642 710.461 304.238 709.466 303.05C709.073 302.58 707.041 304.727 706.542 304.413C706.05 304.104 707.121 301.282 706.615 301.085C704.865 300.404 703.324 300.217 704.022 299.287C704.661 298.788 705.764 298.768 706.867 298.544C707.484 298.419 706.977 296.42 707.515 296.047C708.216 295.561 709.449 297.71 709.883 297.139C710.379 296.487 711.2 294.938 712.131 294.62C713.519 294.145 712.786 296.763 712.063 298.695C711.877 299.191 714.487 299.849 714.374 300.285C714.748 300.888 712.502 301.36 711.879 301.72Z" stroke="#05254D" stroke-width="1.66773"/>
<path d="M562.441 335.75C563.51 335.956 566.167 336.564 566.172 337.229C566.176 337.895 564.324 339.145 563.58 339.789C563.161 340.152 564.546 341.21 564.335 341.625C564.121 342.048 562.798 341.549 562.76 341.988C562.681 342.888 562.485 343.822 561.745 344.554C560.759 344.826 559.899 343.409 559.127 342.565C558.707 342.104 558.016 343.442 557.271 343.44C556.527 343.437 557.584 341.09 556.513 341.086C555.808 341.075 555.184 341.109 554.941 340.28C554.548 338.935 556.972 337.69 557.557 336.536C558.21 335.246 557.215 333.478 558.331 333.169C559.117 332.951 559.95 334.788 560.497 335.376C560.819 335.724 562.016 333.514 562.428 333.69C562.878 333.882 561.964 335.657 562.441 335.75Z" fill="#05254D"/>
<path d="M562.441 335.75C563.51 335.956 566.167 336.564 566.172 337.229C566.176 337.895 564.324 339.145 563.58 339.789C563.161 340.152 564.546 341.21 564.335 341.625C564.121 342.048 562.798 341.549 562.76 341.988C562.681 342.888 562.485 343.822 561.745 344.554C560.759 344.826 559.899 343.409 559.127 342.565C558.707 342.104 558.016 343.442 557.271 343.44C556.527 343.437 557.584 341.09 556.513 341.086C555.808 341.075 555.184 341.109 554.941 340.28C554.548 338.935 556.972 337.69 557.557 336.536C558.21 335.246 557.215 333.478 558.331 333.169C559.117 332.951 559.95 334.788 560.497 335.376C560.819 335.724 562.016 333.514 562.428 333.69C562.878 333.882 561.964 335.657 562.441 335.75Z" stroke="#05254D" stroke-width="1.66773"/>
<path d="M632.276 281.291C631.201 281.472 630.179 280.764 629.995 279.709C629.811 278.654 630.533 277.652 631.608 277.471C632.683 277.291 633.705 277.999 633.889 279.054C634.073 280.108 633.351 281.111 632.276 281.291Z" fill="#05254D"/>
<path d="M632.276 281.291C631.201 281.472 630.179 280.764 629.995 279.709C629.811 278.654 630.533 277.652 631.608 277.471C632.683 277.291 633.705 277.999 633.889 279.054C634.073 280.108 633.351 281.111 632.276 281.291Z" stroke="#05254D" stroke-width="1.66773"/>
<path d="M562.092 82.968V109.977M550.524 120.782L515.909 125.412M500.961 120.782L489.947 94.5427M491.687 80.358L543.445 69.8476M570.193 62.9031L585.141 57.5009M599.302 49.0108L615.823 33.5761M644.144 28.1755L688.201 22.7733" stroke="#05254D" stroke-width="1.66773" stroke-linecap="round" stroke-linejoin="round"/>
<path d="M701.645 22.8422C702.228 24.2551 703.317 25.5833 702.122 25.4938C701.645 25.4586 701.016 24.6275 700.229 23.9642C699.918 23.7021 698.843 25.31 698.481 25.1613C698.124 25.0143 698.494 23.0724 698.14 22.9989C696.92 22.7463 695.893 22.7911 696.24 22.1134C696.599 21.7202 697.316 21.5892 698.008 21.3255C698.394 21.1784 697.831 19.9381 698.139 19.6393C698.539 19.2493 699.594 20.5071 699.81 20.09C700.058 19.6137 700.412 18.5237 700.98 18.2168C701.829 17.7597 701.658 19.5354 701.412 20.8636C701.348 21.2056 703.126 21.3494 703.103 21.6435C703.418 21.9935 702.01 22.5418 701.645 22.8422Z" fill="#05254D"/>
<path d="M701.645 22.8422C702.228 24.2551 703.317 25.5833 702.122 25.4938C701.645 25.4586 701.016 24.6275 700.229 23.9642C699.918 23.7021 698.843 25.31 698.481 25.1613C698.124 25.0143 698.494 23.0724 698.14 22.9989C696.92 22.7463 695.893 22.7911 696.24 22.1134C696.599 21.7202 697.316 21.5892 698.008 21.3255C698.394 21.1784 697.831 19.9381 698.139 19.6393C698.539 19.2493 699.594 20.5071 699.81 20.09C700.058 19.6137 700.412 18.5237 700.98 18.2168C701.829 17.7597 701.658 19.5354 701.412 20.8636C701.348 21.2056 703.126 21.3494 703.103 21.6435C703.418 21.9935 702.01 22.5418 701.645 22.8422Z" stroke="#05254D" stroke-width="1.66773"/>
<path d="M505.349 127.806C504.907 128.264 504.782 129.026 504.091 128.975C503.516 128.932 503.508 128.027 503.141 127.643C502.732 127.215 501.999 127.277 502.048 126.646C502.097 126.015 502.838 125.841 503.307 125.478C503.728 125.153 503.848 124.6 504.424 124.643C504.999 124.687 505.248 125.494 505.615 125.877C506.024 126.306 506.514 126.341 506.465 126.972C506.426 127.492 505.688 127.456 505.349 127.806Z" fill="#05254D"/>
<path d="M505.349 127.806C504.907 128.264 504.782 129.026 504.091 128.975C503.516 128.932 503.508 128.027 503.141 127.643C502.732 127.215 501.999 127.277 502.048 126.646C502.097 126.015 502.838 125.841 503.307 125.478C503.728 125.153 503.848 124.6 504.424 124.643C504.999 124.687 505.248 125.494 505.615 125.877C506.024 126.306 506.514 126.341 506.465 126.972C506.426 127.492 505.688 127.456 505.349 127.806Z" stroke="#05254D" stroke-width="1.66773"/>
<path d="M559.898 120.771C558.822 120.951 557.801 120.243 557.617 119.188C557.432 118.134 558.154 117.131 559.23 116.951C560.305 116.77 561.327 117.478 561.511 118.533C561.695 119.588 560.973 120.59 559.898 120.771Z" fill="#05254D"/>
<path d="M559.898 120.771C558.822 120.951 557.801 120.243 557.617 119.188C557.432 118.134 558.154 117.131 559.23 116.951C560.305 116.77 561.327 117.478 561.511 118.533C561.695 119.588 560.973 120.59 559.898 120.771Z" stroke="#05254D" stroke-width="1.66773"/>
<path d="M593.761 55.5644C593.223 55.6555 592.715 55.3008 592.622 54.7737C592.529 54.2466 592.891 53.7482 593.428 53.6571C593.966 53.5661 594.474 53.9207 594.567 54.4478C594.659 54.975 594.298 55.4734 593.761 55.5644Z" fill="#05254D"/>
<path d="M593.761 55.5644C593.223 55.6555 592.715 55.3008 592.622 54.7737C592.529 54.2466 592.891 53.7482 593.428 53.6571C593.966 53.5661 594.474 53.9207 594.567 54.4478C594.659 54.975 594.298 55.4734 593.761 55.5644Z" stroke="#05254D" stroke-width="1.66773"/>
<path d="M484.539 87.9675C483.573 88.1305 482.657 87.4944 482.491 86.5466C482.325 85.5988 482.973 84.7006 483.94 84.5376C484.906 84.3745 485.821 85.0106 485.988 85.9584C486.154 86.9062 485.505 87.8045 484.539 87.9675Z" fill="#05254D"/>
<path d="M484.539 87.9675C483.573 88.1305 482.657 87.4944 482.491 86.5466C482.325 85.5988 482.973 84.7006 483.94 84.5376C484.906 84.3745 485.821 85.0106 485.988 85.9584C486.154 86.9062 485.505 87.8045 484.539 87.9675Z" stroke="#05254D" stroke-width="1.66773"/>
<path d="M374.399 117.293C373.433 117.456 372.517 116.82 372.351 115.872C372.185 114.924 372.834 114.026 373.8 113.863C374.766 113.7 375.682 114.336 375.848 115.284C376.014 116.232 375.366 117.13 374.399 117.293Z" fill="#05254D"/>
<path d="M374.399 117.293C373.433 117.456 372.517 116.82 372.351 115.872C372.185 114.924 372.834 114.026 373.8 113.863C374.766 113.7 375.682 114.336 375.848 115.284C376.014 116.232 375.366 117.13 374.399 117.293Z" stroke="#05254D" stroke-width="1.66773"/>
<path d="M303.593 83.3358C302.627 83.4989 301.711 82.8627 301.545 81.915C301.379 80.9672 302.027 80.0689 302.994 79.9059C303.96 79.7429 304.875 80.379 305.042 81.3268C305.208 82.2746 304.559 83.1728 303.593 83.3358Z" fill="#05254D"/>
<path d="M303.593 83.3358C302.627 83.4989 301.711 82.8627 301.545 81.915C301.379 80.9672 302.027 80.0689 302.994 79.9059C303.96 79.7429 304.875 80.379 305.042 81.3268C305.208 82.2746 304.559 83.1728 303.593 83.3358Z" stroke="#05254D" stroke-width="1.66773"/>
<path d="M399.574 177.488C398.608 177.651 397.692 177.015 397.526 176.067C397.36 175.119 398.008 174.221 398.975 174.058C399.941 173.895 400.856 174.531 401.023 175.479C401.189 176.426 400.54 177.325 399.574 177.488Z" fill="#05254D"/>
<path d="M399.574 177.488C398.608 177.651 397.692 177.015 397.526 176.067C397.36 175.119 398.008 174.221 398.975 174.058C399.941 173.895 400.856 174.531 401.023 175.479C401.189 176.426 400.54 177.325 399.574 177.488Z" stroke="#05254D" stroke-width="1.66773"/>
<path d="M349.223 177.488C348.257 177.651 347.341 177.015 347.175 176.067C347.009 175.119 347.657 174.221 348.623 174.058C349.589 173.895 350.505 174.531 350.671 175.479C350.837 176.426 350.189 177.325 349.223 177.488Z" fill="#05254D"/>
<path d="M349.223 177.488C348.257 177.651 347.341 177.015 347.175 176.067C347.009 175.119 347.657 174.221 348.623 174.058C349.589 173.895 350.505 174.531 350.671 175.479C350.837 176.426 350.189 177.325 349.223 177.488Z" stroke="#05254D" stroke-width="1.66773"/>
<path d="M557.488 61.9026C558.609 61.925 561.416 62.0784 561.533 62.7529C561.651 63.4274 559.984 65.0145 559.337 65.796C558.974 66.2356 560.562 67.0683 560.419 67.5254C560.274 67.9905 558.843 67.7156 558.879 68.1663C558.953 69.0917 558.915 70.0731 558.288 70.9425C557.333 71.39 556.215 70.1034 555.287 69.3826C554.781 68.9894 554.307 70.463 553.55 70.5909C552.792 70.7188 553.465 68.1583 552.377 68.3405C551.656 68.4508 551.031 68.5946 550.641 67.7971C550.011 66.5041 552.264 64.8211 552.66 63.5505C553.103 62.1296 551.788 60.5105 552.869 60.0039C553.63 59.6474 554.791 61.3624 555.448 61.8643C555.836 62.1599 556.675 59.713 557.124 59.8201C557.613 59.9367 556.986 61.893 557.488 61.9026Z" fill="#05254D"/>
<path d="M557.488 61.9026C558.609 61.925 561.416 62.0784 561.533 62.7529C561.651 63.4274 559.984 65.0145 559.337 65.796C558.974 66.2356 560.562 67.0683 560.419 67.5254C560.274 67.9905 558.843 67.7156 558.879 68.1663C558.953 69.0917 558.915 70.0731 558.288 70.9425C557.333 71.39 556.215 70.1034 555.287 69.3826C554.781 68.9894 554.307 70.463 553.55 70.5909C552.792 70.7188 553.465 68.1583 552.377 68.3405C551.656 68.4508 551.031 68.5946 550.641 67.7971C550.011 66.5041 552.264 64.8211 552.66 63.5505C553.103 62.1296 551.788 60.5105 552.869 60.0039C553.63 59.6474 554.791 61.3624 555.448 61.8643C555.836 62.1599 556.675 59.713 557.124 59.8201C557.613 59.9367 556.986 61.893 557.488 61.9026Z" stroke="#05254D" stroke-width="1.66773"/>
<path d="M404.98 125.412H324.735M302.707 125.412H235.836M311.362 116.152L305.855 90.6846M230.328 108.435L252.357 86.8263M294.84 82.1961H278.319M311.362 82.1961H332.602M349.123 86.8263L368.006 108.435M430.942 165.542L423.863 130.814M218.529 134.673V164M302.707 175.574H342.829M404.98 175.574H423.863" stroke="#05254D" stroke-width="1.66773" stroke-linecap="round" stroke-linejoin="round"/>
<path d="M344.834 84.1041C344.053 84.6802 343.661 85.7907 342.646 85.5432C341.799 85.3368 342.03 83.9771 341.588 83.3125C341.092 82.5689 339.986 82.4808 340.228 81.5452C340.47 80.6095 341.619 80.5328 342.417 80.1045C343.13 79.7215 343.457 78.9238 344.304 79.1303C345.15 79.3367 345.306 80.6121 345.748 81.2767C346.243 82.0204 346.963 82.1926 346.721 83.1283C346.523 83.8961 345.434 83.6636 344.834 84.1041Z" fill="#05254D"/>
<path d="M344.834 84.1041C344.053 84.6802 343.661 85.7907 342.646 85.5432C341.799 85.3368 342.03 83.9771 341.588 83.3125C341.092 82.5689 339.986 82.4808 340.228 81.5452C340.47 80.6095 341.619 80.5328 342.417 80.1045C343.13 79.7215 343.457 78.9238 344.304 79.1303C345.15 79.3367 345.306 80.6121 345.748 81.2767C346.243 82.0204 346.963 82.1926 346.721 83.1283C346.523 83.8961 345.434 83.6636 344.834 84.1041Z" stroke="#05254D" stroke-width="1.66773"/>
<path d="M314.939 127.32C314.158 127.896 313.765 129.007 312.75 128.759C311.904 128.553 312.135 127.193 311.693 126.529C311.197 125.785 310.091 125.697 310.333 124.761C310.575 123.825 311.724 123.749 312.522 123.32C313.235 122.938 313.562 122.14 314.408 122.346C315.255 122.553 315.411 123.828 315.853 124.493C316.348 125.236 317.068 125.409 316.826 126.344C316.628 127.112 315.538 126.88 314.939 127.32Z" fill="#05254D"/>
<path d="M314.939 127.32C314.158 127.896 313.765 129.007 312.75 128.759C311.904 128.553 312.135 127.193 311.693 126.529C311.197 125.785 310.091 125.697 310.333 124.761C310.575 123.825 311.724 123.749 312.522 123.32C313.235 122.938 313.562 122.14 314.408 122.346C315.255 122.553 315.411 123.828 315.853 124.493C316.348 125.236 317.068 125.409 316.826 126.344C316.628 127.112 315.538 126.88 314.939 127.32Z" stroke="#05254D" stroke-width="1.66773"/>
<path d="M294.498 176.711C293.716 177.283 293.33 178.392 292.31 178.143C291.459 177.935 291.684 176.577 291.236 175.912C290.736 175.169 289.625 175.077 289.863 174.144C290.101 173.211 291.253 173.139 292.051 172.714C292.765 172.333 293.089 171.537 293.939 171.745C294.79 171.953 294.951 173.227 295.399 173.892C295.899 174.635 296.624 174.809 296.387 175.742C296.191 176.508 295.096 176.273 294.498 176.711Z" fill="#05254D"/>
<path d="M294.498 176.711C293.716 177.283 293.33 178.392 292.31 178.143C291.459 177.935 291.684 176.577 291.236 175.912C290.736 175.169 289.625 175.077 289.863 174.144C290.101 173.211 291.253 173.139 292.051 172.714C292.765 172.333 293.089 171.537 293.939 171.745C294.79 171.953 294.951 173.227 295.399 173.892C295.899 174.635 296.624 174.809 296.387 175.742C296.191 176.508 295.096 176.273 294.498 176.711Z" stroke="#05254D" stroke-width="1.66773"/>
<path d="M394.753 180.206C394.753 190.435 386.3 198.727 375.872 198.727C365.444 198.727 356.991 190.435 356.991 180.206" stroke="#05254D" stroke-width="1.66773" stroke-linecap="round"/>
<path d="M245.278 180.206C245.278 190.435 253.731 198.727 264.158 198.727C274.586 198.727 283.039 190.435 283.039 180.206" stroke="#05254D" stroke-width="1.66773" stroke-linecap="round"/>
<path fill-rule="evenodd" clip-rule="evenodd" d="M226.354 175.58C226.354 175.119 225.981 174.746 225.52 174.746H213.72C213.26 174.746 212.887 175.119 212.887 175.58C212.887 176.04 213.26 176.414 213.72 176.414H225.52C225.981 176.414 226.354 176.04 226.354 175.58Z" fill="#05254D"/>
<path d="M218.677 169.402C217.022 169.402 215.679 170.719 215.679 172.343C215.679 173.966 217.022 175.283 218.677 175.283C220.332 175.283 221.675 173.966 221.675 172.343C221.675 170.719 220.332 169.402 218.677 169.402Z" fill="#05254D"/>
<path d="M218.677 169.402C217.022 169.402 215.679 170.719 215.679 172.343C215.679 173.966 217.022 175.283 218.677 175.283C220.332 175.283 221.675 173.966 221.675 172.343C221.675 170.719 220.332 169.402 218.677 169.402Z" stroke="#05254D" stroke-width="1.66773"/>
<path d="M413.784 123.098C412.129 123.098 410.786 124.416 410.786 126.039C410.786 127.662 412.129 128.98 413.784 128.98C415.438 128.98 416.781 127.662 416.781 126.039C416.781 124.416 415.438 123.098 413.784 123.098Z" fill="#05254D"/>
<path d="M413.784 123.098C412.129 123.098 410.786 124.416 410.786 126.039C410.786 127.662 412.129 128.98 413.784 128.98C415.438 128.98 416.781 127.662 416.781 126.039C416.781 124.416 415.438 123.098 413.784 123.098Z" stroke="#05254D" stroke-width="1.66773"/>
<path d="M333.539 138.532C331.884 138.532 330.541 139.85 330.541 141.473C330.541 143.096 331.884 144.414 333.539 144.414C335.193 144.414 336.537 143.096 336.537 141.473C336.537 139.85 335.193 138.532 333.539 138.532Z" fill="#05254D"/>
<path d="M333.539 138.532C331.884 138.532 330.541 139.85 330.541 141.473C330.541 143.096 331.884 144.414 333.539 144.414C335.193 144.414 336.537 143.096 336.537 141.473C336.537 139.85 335.193 138.532 333.539 138.532Z" stroke="#05254D" stroke-width="1.66773"/>
<path d="M264.013 82.9875C263.234 83.9044 262.702 85.1333 262.324 84.2867C262.172 83.9481 262.525 83.2137 262.701 82.4339C262.771 82.1251 261.241 81.9852 261.213 81.6841C261.185 81.3864 262.689 80.923 262.61 80.6561C262.337 79.7322 261.925 79.0503 262.53 79.0369C262.939 79.1375 263.296 79.5762 263.738 79.9517C263.985 80.1608 264.648 79.321 264.972 79.4207C265.395 79.5499 264.9 80.7308 265.273 80.7254C265.698 80.7186 266.597 80.5584 267.024 80.8337C267.659 81.2441 266.345 81.7799 265.319 82.1009C265.055 82.1836 265.611 83.4477 265.396 83.5404C265.265 83.8831 264.359 83.1257 264.013 82.9875Z" fill="#05254D"/>
<path d="M264.013 82.9875C263.234 83.9044 262.702 85.1333 262.324 84.2867C262.172 83.9481 262.525 83.2137 262.701 82.4339C262.771 82.1251 261.241 81.9852 261.213 81.6841C261.185 81.3864 262.689 80.923 262.61 80.6561C262.337 79.7322 261.925 79.0503 262.53 79.0369C262.939 79.1375 263.296 79.5762 263.738 79.9517C263.985 80.1608 264.648 79.321 264.972 79.4207C265.395 79.5499 264.9 80.7308 265.273 80.7254C265.698 80.7186 266.597 80.5584 267.024 80.8337C267.659 81.2441 266.345 81.7799 265.319 82.1009C265.055 82.1836 265.611 83.4477 265.396 83.5404C265.265 83.8831 264.359 83.1257 264.013 82.9875Z" stroke="#05254D" stroke-width="0.900321"/>
<path d="M437.753 173.233C439.97 172.8 442.198 171.633 441.745 173.284C441.564 173.944 440.181 174.6 439.001 175.523C438.535 175.889 440.588 177.833 440.272 178.3C439.961 178.76 437.23 177.715 437.028 178.189C436.33 179.831 436.117 181.284 435.224 180.614C434.748 180.003 434.753 178.964 434.556 177.921C434.447 177.339 432.485 177.791 432.133 177.28C431.674 176.612 433.794 175.477 433.244 175.06C432.619 174.585 431.123 173.791 430.831 172.91C430.396 171.595 432.936 172.319 434.805 173.024C435.286 173.204 435.978 170.752 436.4 170.864C436.997 170.519 437.416 172.64 437.753 173.233Z" fill="#05254D"/>
<path d="M437.753 173.233C439.97 172.8 442.198 171.633 441.745 173.284C441.564 173.944 440.181 174.6 439.001 175.523C438.535 175.889 440.588 177.833 440.272 178.3C439.961 178.76 437.23 177.715 437.028 178.189C436.33 179.831 436.117 181.284 435.224 180.614C434.748 180.003 434.753 178.964 434.556 177.921C434.447 177.339 432.485 177.791 432.133 177.28C431.674 176.612 433.794 175.477 433.244 175.06C432.619 174.585 431.123 173.791 430.831 172.91C430.396 171.595 432.936 172.319 434.805 173.024C435.286 173.204 435.978 170.752 436.4 170.864C436.997 170.519 437.416 172.64 437.753 173.233Z" stroke="#05254D" stroke-width="1.66773"/>
<path d="M222.976 120.887C223.229 121.421 223.814 122.78 223.512 122.996C223.21 123.212 222.042 122.805 221.507 122.687C221.207 122.62 221.173 123.566 220.916 123.608C220.654 123.65 220.453 122.911 220.24 123.035C219.805 123.29 219.317 123.506 218.744 123.418C218.301 123.075 218.668 122.242 218.802 121.632C218.874 121.301 218.042 121.428 217.802 121.102C217.562 120.775 218.973 120.481 218.627 120.012C218.404 119.699 218.186 119.438 218.485 119.065C218.969 118.46 220.322 119.121 221.036 119.005C221.835 118.875 222.318 117.87 222.819 118.259C223.173 118.532 222.607 119.489 222.516 119.917C222.462 120.17 223.856 119.982 223.91 120.219C223.968 120.477 222.864 120.649 222.976 120.887Z" fill="#05254D"/>
<path d="M222.976 120.887C223.229 121.421 223.814 122.78 223.512 122.996C223.21 123.212 222.042 122.805 221.507 122.687C221.207 122.62 221.173 123.566 220.916 123.608C220.654 123.65 220.453 122.911 220.24 123.035C219.805 123.29 219.317 123.506 218.744 123.418C218.301 123.075 218.668 122.242 218.802 121.632C218.874 121.301 218.042 121.428 217.802 121.102C217.562 120.775 218.973 120.481 218.627 120.012C218.404 119.699 218.186 119.438 218.485 119.065C218.969 118.46 220.322 119.121 221.036 119.005C221.835 118.875 222.318 117.87 222.819 118.259C223.173 118.532 222.607 119.489 222.516 119.917C222.462 120.17 223.856 119.982 223.91 120.219C223.968 120.477 222.864 120.649 222.976 120.887Z" stroke="#05254D" stroke-width="0.588657"/>
<path fill-rule="evenodd" clip-rule="evenodd" d="M343.573 141.623C343.573 141.162 343.2 140.789 342.739 140.789H330.151C329.691 140.789 329.317 141.162 329.317 141.623C329.317 142.083 329.691 142.457 330.151 142.457H342.739C343.2 142.457 343.573 142.083 343.573 141.623Z" fill="#05254D"/>
<path d="M365.946 140.92C366.158 138.711 365.655 136.282 367.137 137.18C367.73 137.54 367.975 139.028 368.54 140.401C368.763 140.944 371.251 139.57 371.616 140C371.977 140.425 370.174 142.693 370.58 143.019C371.985 144.144 373.34 144.759 372.431 145.408C371.7 145.68 370.686 145.379 369.611 145.266C369.011 145.202 368.892 147.173 368.291 147.358C367.507 147.599 367.004 145.282 366.44 145.678C365.796 146.131 364.594 147.31 363.651 147.333C362.241 147.366 363.675 145.184 364.899 143.629C365.213 143.23 363.015 141.876 363.245 141.512C363.079 140.853 365.27 141.069 365.946 140.92Z" fill="#05254D"/>
<path d="M365.946 140.92C366.158 138.711 365.655 136.282 367.137 137.18C367.73 137.54 367.975 139.028 368.54 140.401C368.763 140.944 371.251 139.57 371.616 140C371.977 140.425 370.174 142.693 370.58 143.019C371.985 144.144 373.34 144.759 372.431 145.408C371.7 145.68 370.686 145.379 369.611 145.266C369.011 145.202 368.892 147.173 368.291 147.358C367.507 147.599 367.004 145.282 366.44 145.678C365.796 146.131 364.594 147.31 363.651 147.333C362.241 147.366 363.675 145.184 364.899 143.629C365.213 143.23 363.015 141.876 363.245 141.512C363.079 140.853 365.27 141.069 365.946 140.92Z" stroke="#05254D" stroke-width="1.66773"/>
<path d="M682.13 412.138C682.946 412.68 684.149 412.675 684.249 413.714C684.333 414.578 682.944 414.819 682.451 415.458C681.899 416.173 682.186 417.245 681.203 417.331C680.22 417.418 679.763 416.362 679.082 415.756C678.474 415.214 677.596 415.173 677.512 414.308C677.429 413.443 678.607 412.869 679.1 412.229C679.651 411.514 679.575 410.776 680.558 410.69C681.364 410.618 681.504 411.722 682.13 412.138Z" fill="#05254D"/>
<path d="M682.13 412.138C682.946 412.68 684.149 412.675 684.249 413.714C684.333 414.578 682.944 414.819 682.451 415.458C681.899 416.173 682.186 417.245 681.203 417.331C680.22 417.418 679.763 416.362 679.082 415.756C678.474 415.214 677.596 415.173 677.512 414.308C677.429 413.443 678.607 412.869 679.1 412.229C679.651 411.514 679.575 410.776 680.558 410.69C681.364 410.618 681.504 411.722 682.13 412.138Z" stroke="#05254D" stroke-width="1.66773"/>
<path d="M669.723 468.315C669.468 466.644 668.975 462.439 669.979 462.095C670.982 461.75 673.853 463.827 675.221 464.59C675.991 465.02 676.859 462.453 677.598 462.55C678.35 462.649 678.297 464.84 678.98 464.675C680.381 464.334 681.896 464.144 683.394 464.857C684.328 466.163 682.643 468.144 681.778 469.705C681.307 470.555 683.692 470.889 684.084 471.981C684.475 473.073 680.368 472.718 680.93 474.288C681.287 475.329 681.67 476.226 680.546 477.004C678.724 478.265 675.556 475.341 673.503 475.071C671.205 474.77 669.062 477.128 668.004 475.651C667.259 474.61 669.592 472.455 670.191 471.355C670.545 470.704 666.568 470.074 666.617 469.379C666.669 468.623 669.837 469.063 669.723 468.315Z" fill="#05254D"/>
<path d="M669.723 468.315C669.468 466.644 668.975 462.439 669.979 462.095C670.982 461.75 673.853 463.827 675.221 464.59C675.991 465.02 676.859 462.453 677.598 462.55C678.35 462.649 678.297 464.84 678.98 464.675C680.381 464.334 681.896 464.144 683.394 464.857C684.328 466.163 682.643 468.144 681.778 469.705C681.307 470.555 683.692 470.889 684.084 471.981C684.475 473.073 680.368 472.718 680.93 474.288C681.287 475.329 681.67 476.226 680.546 477.004C678.724 478.265 675.556 475.341 673.503 475.071C671.205 474.77 669.062 477.128 668.004 475.651C667.259 474.61 669.592 472.455 670.191 471.355C670.545 470.704 666.568 470.074 666.617 469.379C666.669 468.623 669.837 469.063 669.723 468.315Z" stroke="#05254D" stroke-width="1.66773"/>
<path d="M740.27 496.319C740.826 497.87 740.003 499.565 738.432 500.103C736.861 500.641 735.136 499.821 734.58 498.27C734.025 496.719 734.847 495.024 736.418 494.486C737.989 493.948 739.715 494.769 740.27 496.319Z" fill="#05254D"/>
<path d="M740.27 496.319C740.826 497.87 740.003 499.565 738.432 500.103C736.861 500.641 735.136 499.821 734.58 498.27C734.025 496.719 734.847 495.024 736.418 494.486C737.989 493.948 739.715 494.769 740.27 496.319Z" stroke="#05254D" stroke-width="1.66773"/>
<path d="M682.439 422.802L677.652 455.202M690.019 475.737L723.792 493.03" stroke="#05254D" stroke-width="1.66773" stroke-linecap="round" stroke-linejoin="round"/>
<path d="M202.762 394.114C201.569 393.922 200.961 392.578 200.828 391.76C200.694 390.942 201.261 390.171 202.095 390.04C202.93 389.909 204.469 390.347 204.603 391.165C204.736 391.984 203.954 394.306 202.762 394.114Z" fill="#05254D"/>
<path d="M202.762 394.114C201.569 393.922 200.961 392.578 200.828 391.76C200.694 390.942 201.261 390.171 202.095 390.04C202.93 389.909 204.469 390.347 204.603 391.165C204.736 391.984 203.954 394.306 202.762 394.114Z" stroke="#05254D" stroke-width="1.66773"/>
<path d="M288.823 361.784C287.631 361.593 287.023 360.248 286.889 359.43C286.756 358.612 287.323 357.841 288.157 357.71C288.991 357.579 290.531 358.017 290.664 358.836C290.798 359.654 290.016 361.976 288.823 361.784Z" fill="#05254D"/>
<path d="M288.823 361.784C287.631 361.593 287.023 360.248 286.889 359.43C286.756 358.612 287.323 357.841 288.157 357.71C288.991 357.579 290.531 358.017 290.664 358.836C290.798 359.654 290.016 361.976 288.823 361.784Z" stroke="#05254D" stroke-width="1.66773"/>
<path d="M410.476 330.913C409.64 331.045 408.855 330.488 408.721 329.668C408.588 328.849 409.155 328.078 409.99 327.947C410.826 327.816 411.612 328.372 411.745 329.192C411.879 330.012 411.312 330.782 410.476 330.913Z" fill="#05254D"/>
<path d="M410.476 330.913C409.64 331.045 408.855 330.488 408.721 329.668C408.588 328.849 409.155 328.078 409.99 327.947C410.826 327.816 411.612 328.372 411.745 329.192C411.879 330.012 411.312 330.782 410.476 330.913Z" stroke="#05254D" stroke-width="1.66773"/>
<path d="M303.202 381.392C320.4 368.123 349.399 363.953 362.776 366.771M211.532 390.982L230.27 388.584M243.324 377.396L248.212 369.405M263.283 368.606L281.206 372.601M385.076 354.221L402.846 337.163M366.96 362.213V348.515M362.776 376.597C354.526 383.789 321.125 390.183 307.331 390.183M296.685 378.995L292.611 365.409M293.32 354.498C313.003 334.501 349.236 332.307 360.851 337.514M252.083 354.984L301.628 307.053M331.716 303.076L400.98 323.671" stroke="#05254D" stroke-width="1.66773" stroke-linecap="round" stroke-linejoin="round"/>
<path d="M288.299 375.948C287.588 376.066 286.951 376.666 286.366 376.164C285.879 375.745 286.493 374.927 286.428 374.342C286.355 373.687 285.654 373.26 286.132 372.724C286.609 372.189 287.393 372.523 288.064 372.507C288.665 372.493 289.152 372.077 289.64 372.496C290.127 372.915 289.796 373.805 289.861 374.39C289.934 375.045 290.352 375.4 289.874 375.935C289.482 376.375 288.843 375.857 288.299 375.948Z" fill="#05254D"/>
<path d="M288.299 375.948C287.588 376.066 286.951 376.666 286.366 376.164C285.879 375.745 286.493 374.927 286.428 374.342C286.355 373.687 285.654 373.26 286.132 372.724C286.609 372.189 287.393 372.523 288.064 372.507C288.665 372.493 289.152 372.077 289.64 372.496C290.127 372.915 289.796 373.805 289.861 374.39C289.934 375.045 290.352 375.4 289.874 375.935C289.482 376.375 288.843 375.857 288.299 375.948Z" stroke="#05254D" stroke-width="1.66773"/>
<path d="M378.818 359.32C377.982 359.451 377.197 358.894 377.063 358.075C376.93 357.255 377.497 356.484 378.333 356.353C379.168 356.222 379.954 356.778 380.087 357.598C380.221 358.418 379.654 359.189 378.818 359.32Z" fill="#05254D"/>
<path d="M378.818 359.32C377.982 359.451 377.197 358.894 377.063 358.075C376.93 357.255 377.497 356.484 378.333 356.353C379.168 356.222 379.954 356.778 380.087 357.598C380.221 358.418 379.654 359.189 378.818 359.32Z" stroke="#05254D" stroke-width="1.66773"/>
<path d="M237.978 386.657C237.142 386.788 236.357 386.232 236.223 385.412C236.09 384.592 236.657 383.821 237.493 383.69C238.329 383.559 239.114 384.115 239.247 384.935C239.381 385.755 238.814 386.526 237.978 386.657Z" fill="#05254D"/>
<path d="M237.978 386.657C237.142 386.788 236.357 386.232 236.223 385.412C236.09 384.592 236.657 383.821 237.493 383.69C238.329 383.559 239.114 384.115 239.247 384.935C239.381 385.755 238.814 386.526 237.978 386.657Z" stroke="#05254D" stroke-width="1.66773"/>
<path d="M255.305 364.84C254.721 365.43 254.547 366.421 253.648 366.346C252.898 366.283 252.9 365.102 252.429 364.599C251.901 364.035 250.948 364.108 251.019 363.285C251.091 362.462 252.057 362.246 252.675 361.779C253.227 361.362 253.392 360.643 254.141 360.705C254.891 360.768 255.205 361.827 255.676 362.331C256.204 362.895 256.841 362.944 256.769 363.768C256.711 364.444 255.751 364.388 255.305 364.84Z" fill="#05254D"/>
<path d="M255.305 364.84C254.721 365.43 254.547 366.421 253.648 366.346C252.898 366.283 252.9 365.102 252.429 364.599C251.901 364.035 250.948 364.108 251.019 363.285C251.091 362.462 252.057 362.246 252.675 361.779C253.227 361.362 253.392 360.643 254.141 360.705C254.891 360.768 255.205 361.827 255.676 362.331C256.204 362.895 256.841 362.944 256.769 363.768C256.711 364.444 255.751 364.388 255.305 364.84Z" stroke="#05254D" stroke-width="1.66773"/>
<path d="M369.099 370.504C368.956 371.104 369.233 371.809 368.625 372.099C368.118 372.342 367.656 371.583 367.154 371.438C366.593 371.275 366.008 371.681 365.731 371.125C365.454 370.568 365.99 370.065 366.204 369.531C366.394 369.053 366.217 368.529 366.724 368.286C367.23 368.043 367.848 368.604 368.35 368.749C368.91 368.912 369.342 368.703 369.619 369.259C369.847 369.716 369.208 370.046 369.099 370.504Z" fill="#05254D"/>
<path d="M369.099 370.504C368.956 371.104 369.233 371.809 368.625 372.099C368.118 372.342 367.656 371.583 367.154 371.438C366.593 371.275 366.008 371.681 365.731 371.125C365.454 370.568 365.99 370.065 366.204 369.531C366.394 369.053 366.217 368.529 366.724 368.286C367.23 368.043 367.848 368.604 368.35 368.749C368.91 368.912 369.342 368.703 369.619 369.259C369.847 369.716 369.208 370.046 369.099 370.504Z" stroke="#05254D" stroke-width="1.66773"/>
<path d="M295.394 387.258C295.707 386.737 296.537 385.458 296.897 385.584C297.257 385.711 297.579 386.924 297.786 387.44C297.902 387.729 298.733 387.208 298.917 387.398C299.104 387.592 298.586 388.191 298.814 388.297C299.284 388.512 299.751 388.794 300.005 389.324C299.966 389.895 299.039 390.072 298.44 390.315C298.112 390.448 298.702 391.068 298.56 391.46C298.418 391.851 297.353 390.843 297.149 391.404C297.009 391.773 296.91 392.107 296.418 392.075C295.619 392.022 295.407 390.505 294.896 389.975C294.324 389.382 293.185 389.564 293.229 388.918C293.26 388.463 294.407 388.38 294.827 388.207C295.075 388.105 294.112 387.048 294.285 386.866C294.472 386.668 295.254 387.491 295.394 387.258Z" fill="#05254D"/>
<path d="M295.394 387.258C295.707 386.737 296.537 385.458 296.897 385.584C297.257 385.711 297.579 386.924 297.786 387.44C297.902 387.729 298.733 387.208 298.917 387.398C299.104 387.592 298.586 388.191 298.814 388.297C299.284 388.512 299.751 388.794 300.005 389.324C299.966 389.895 299.039 390.072 298.44 390.315C298.112 390.448 298.702 391.068 298.56 391.46C298.418 391.851 297.353 390.843 297.149 391.404C297.009 391.773 296.91 392.107 296.418 392.075C295.619 392.022 295.407 390.505 294.896 389.975C294.324 389.382 293.185 389.564 293.229 388.918C293.26 388.463 294.407 388.38 294.827 388.207C295.075 388.105 294.112 387.048 294.285 386.866C294.472 386.668 295.254 387.491 295.394 387.258Z" stroke="#05254D" stroke-width="1.66773"/>
<path d="M369.091 337.554C369.321 335.852 369.006 333.96 370.125 334.698C370.574 334.994 370.717 336.151 371.113 337.23C371.269 337.656 373.234 336.666 373.503 337.009C373.769 337.348 372.305 339.049 372.61 339.312C373.661 340.223 374.694 340.74 373.971 341.214C373.397 341.403 372.622 341.142 371.794 341.022C371.331 340.955 371.181 342.477 370.71 342.603C370.098 342.766 369.777 340.96 369.329 341.251C368.817 341.582 367.851 342.458 367.121 342.448C366.031 342.434 367.206 340.788 368.198 339.621C368.454 339.32 366.795 338.209 366.984 337.935C366.875 337.42 368.565 337.648 369.091 337.554Z" fill="#05254D"/>
<path d="M369.091 337.554C369.321 335.852 369.006 333.96 370.125 334.698C370.574 334.994 370.717 336.151 371.113 337.23C371.269 337.656 373.234 336.666 373.503 337.009C373.769 337.348 372.305 339.049 372.61 339.312C373.661 340.223 374.694 340.74 373.971 341.214C373.397 341.403 372.622 341.142 371.794 341.022C371.331 340.955 371.181 342.477 370.71 342.603C370.098 342.766 369.777 340.96 369.329 341.251C368.817 341.582 367.851 342.458 367.121 342.448C366.031 342.434 367.206 340.788 368.198 339.621C368.454 339.32 366.795 338.209 366.984 337.935C366.875 337.42 368.565 337.648 369.091 337.554Z" stroke="#05254D" stroke-width="1.66773"/>
<path d="M318.554 299.073C322 297.49 325.163 294.698 325.104 297.588C325.08 298.744 323.089 300.366 321.543 302.347C320.931 303.132 325.094 305.52 324.772 306.409C324.452 307.289 319.554 306.642 319.42 307.502C318.959 310.474 319.212 312.942 317.474 312.192C316.444 311.376 316.022 309.668 315.267 308.031C314.846 307.117 311.828 308.633 311.041 307.929C310.013 307.013 313.008 304.313 311.939 303.844C310.718 303.308 307.945 302.592 307.103 301.259C305.847 299.27 310.302 299.46 313.65 299.885C314.511 299.994 314.625 295.69 315.362 295.709C316.194 294.907 317.756 298.233 318.554 299.073Z" fill="#05254D"/>
<path d="M318.554 299.073C322 297.49 325.163 294.698 325.104 297.588C325.08 298.744 323.089 300.366 321.543 302.347C320.931 303.132 325.094 305.52 324.772 306.409C324.452 307.289 319.554 306.642 319.42 307.502C318.959 310.474 319.212 312.942 317.474 312.192C316.444 311.376 316.022 309.668 315.267 308.031C314.846 307.117 311.828 308.633 311.041 307.929C310.013 307.013 313.008 304.313 311.939 303.844C310.718 303.308 307.945 302.592 307.103 301.259C305.847 299.27 310.302 299.46 313.65 299.885C314.511 299.994 314.625 295.69 315.362 295.709C316.194 294.907 317.756 298.233 318.554 299.073Z" stroke="#05254D" stroke-width="2.13019"/>
</g>
</svg>
